<?xml version="1.0" encoding="UTF-8"?>
<svg xmlns="http://www.w3.org/2000/svg" xmlns:xlink="http://www.w3.org/1999/xlink" version="1.1" width="161" height="158">
<path d="M0 0 C0.91523437 0.28875 1.83046875 0.5775 2.7734375 0.875 C21.74896678 7.57928795 37.17679994 23.61655533 45.8125 41.4375 C49.63192729 50.4904678 52.60024595 60.13940005 53 70 C53.0515625 70.94875 53.103125 71.8975 53.15625 72.875 C53.75714344 93.30537682 47.36399285 110.98151722 35 127 C34.44699219 127.73734375 33.89398438 128.4746875 33.32421875 129.234375 C21.50753494 143.89527303 2.55048298 153.6463756 -16 156 C-41.25143935 157.99118659 -62.90536145 151.82041528 -82.40234375 135.33984375 C-95.95952435 123.12818784 -106.95575506 104.93157687 -108.17700195 86.29956055 C-108.69896102 61.48882914 -105.73312305 42.28621812 -89 23 C-88.37996094 22.18273437 -87.75992188 21.36546875 -87.12109375 20.5234375 C-66.45374854 -4.06423286 -29.18728215 -9.84301787 0 0 Z " fill="#E3E2D2" transform="translate(108,4)"/>
<path d="M0 0 C0.91523437 0.28875 1.83046875 0.5775 2.7734375 0.875 C21.74896678 7.57928795 37.17679994 23.61655533 45.8125 41.4375 C49.63192729 50.4904678 52.60024595 60.13940005 53 70 C53.0515625 70.94875 53.103125 71.8975 53.15625 72.875 C53.75714344 93.30537682 47.36399285 110.98151722 35 127 C34.44699219 127.73734375 33.89398438 128.4746875 33.32421875 129.234375 C21.50753494 143.89527303 2.55048298 153.6463756 -16 156 C-41.25143935 157.99118659 -62.90536145 151.82041528 -82.40234375 135.33984375 C-95.95952435 123.12818784 -106.95575506 104.93157687 -108.17700195 86.29956055 C-108.69896102 61.48882914 -105.73312305 42.28621812 -89 23 C-88.37996094 22.18273437 -87.75992188 21.36546875 -87.12109375 20.5234375 C-66.45374854 -4.06423286 -29.18728215 -9.84301787 0 0 Z M-72 35 C-72.56203125 35.54011719 -73.1240625 36.08023438 -73.703125 36.63671875 C-80.21378053 43.43864045 -86.71485027 55.44155616 -87.125 64.875 C-87.063125 65.926875 -87.063125 65.926875 -87 67 C-87.99 67.495 -87.99 67.495 -89 68 C-88.67 73.28 -88.34 78.56 -88 84 C-92.95 84.495 -92.95 84.495 -98 85 C-98 85.33 -98 85.66 -98 86 C-92.42169984 86.12469099 -92.42169984 86.12469099 -87 85 C-87 86.32 -87 87.64 -87 89 C-91.455 89.99 -91.455 89.99 -96 91 C-92.16380575 91.95904856 -90.67568464 91.91892116 -87 91 C-86.34 92.32 -85.68 93.64 -85 95 C-85.99 95.495 -85.99 95.495 -87 96 C-86.01 96 -85.02 96 -84 96 C-83.67 97.32 -83.34 98.64 -83 100 C-83.99 100.495 -83.99 100.495 -85 101 C-84.01 101 -83.02 101 -82 101 C-82 105 -82 105 -83.5 106.75 C-83.995 107.1625 -84.49 107.575 -85 108 C-82.525 107.505 -82.525 107.505 -80 107 C-79.67 108.32 -79.34 109.64 -79 111 C-78.01 111 -77.02 111 -76 111 C-76.33 112.98 -76.66 114.96 -77 117 C-75.02 116.505 -75.02 116.505 -73 116 C-72.61328125 116.49371094 -72.2265625 116.98742187 -71.828125 117.49609375 C-71.30734375 118.13675781 -70.7865625 118.77742188 -70.25 119.4375 C-69.73953125 120.07558594 -69.2290625 120.71367188 -68.703125 121.37109375 C-67.11528812 123.15892055 -67.11528812 123.15892055 -64.859375 123.53515625 C-63.93898438 123.76525391 -63.93898438 123.76525391 -63 124 C-62.67 124.99 -62.34 125.98 -62 127 C-61.01 127.33 -60.02 127.66 -59 128 C-58.01 128.99 -58.01 128.99 -57 130 C-55.68 130 -54.36 130 -53 130 C-52.67 130.66 -52.34 131.32 -52 132 C-50.68 132 -49.36 132 -48 132 C-48.33 133.98 -48.66 135.96 -49 138 C-48.34 137.34 -47.68 136.68 -47 136 C-47 135.01 -47 134.02 -47 133 C-46.48695312 133.2165625 -45.97390625 133.433125 -45.4453125 133.65625 C-31.08478423 138.87826028 -16.86278873 136.28825728 -3 131 C-2.67 132.65 -2.34 134.3 -2 136 C-0.84188612 133.05270463 -0.84188612 133.05270463 -1 130 C0.98 130.495 0.98 130.495 3 131 C3 130.01 3 129.02 3 128 C3.99 127.67 4.98 127.34 6 127 C6.66 127.33 7.32 127.66 8 128 C7.67 126.68 7.34 125.36 7 124 C7.598125 123.90332031 8.19625 123.80664062 8.8125 123.70703125 C11.45880245 122.8517085 12.29435917 121.85199529 14 119.6875 C15.67355304 117.61769007 17.27321117 115.73459487 19.1875 113.875 C21.22736081 111.76479916 22.53377316 109.53257363 24 107 C24.66 106.34 25.32 105.68 26 105 C26.495 103.515 26.495 103.515 27 102 C27.66 101.34 28.32 100.68 29 100 C29 99.01 29 98.02 29 97 C32.63 97.66 36.26 98.32 40 99 C37.80202597 96.80202597 36.82453855 96.54102483 33.875 95.875 C32.59625 95.58625 31.3175 95.2975 30 95 C30 93.68 30 92.36 30 91 C33.3 91.33 36.6 91.66 40 92 C36.81237635 89.87491756 34.73487777 89.4979837 31 89 C31 87.68 31 86.36 31 85 C34.63 85.33 38.26 85.66 42 86 C42 85.67 42 85.34 42 85 C38.7 84.67 35.4 84.34 32 84 C32 78.72 32 73.44 32 68 C35.3 67.67 38.6 67.34 42 67 C42 66.67 42 66.34 42 66 C38.13013042 65.92557943 34.7264085 65.95297814 31 67 C30.9175 65.72125 30.835 64.4425 30.75 63.125 C29.60877811 53.27039478 24.94984389 45.74133535 19 38 C18.29037109 37.0409375 18.29037109 37.0409375 17.56640625 36.0625 C8.57511898 24.6514612 -5.88557041 18.00083672 -20 16 C-40.61609451 14.50400109 -57.31824556 20.1307049 -72 35 Z " fill="#4F4C2A" transform="translate(108,4)"/>
<path d="M0 0 C1.5 1.375 1.5 1.375 3 3 C3 3.66 3 4.32 3 5 C3.99 5 4.98 5 6 5 C6 4.01 6 3.02 6 2 C8.475 2.495 8.475 2.495 11 3 C11 4.32 11 5.64 11 7 C9.68 7 8.36 7 7 7 C8.7058258 9.77119784 8.7058258 9.77119784 10 11 C10.04063832 12.66617115 10.042721 14.33388095 10 16 C9.0409375 16.3403125 9.0409375 16.3403125 8.0625 16.6875 C5.72806339 17.85250896 5.72806339 17.85250896 5.25 20.625 C5.1675 21.40875 5.085 22.1925 5 23 C4.01 23.33 3.02 23.66 2 24 C2.33 24.33 2.66 24.66 3 25 C3.66 25 4.32 25 5 25 C5 26.98 5 28.96 5 31 C3.02 31.99 3.02 31.99 1 33 C0.938125 32.21625 0.87625 31.4325 0.8125 30.625 C0.26711667 27.78948376 0.26711667 27.78948376 -2.375 26.6875 C-5.03143 25.8733203 -5.03143 25.8733203 -8 26 C-8 26.66 -8 27.32 -8 28 C-6.02 28.33 -4.04 28.66 -2 29 C-1.505 31.97 -1.505 31.97 -1 35 C-0.34 35 0.32 35 1 35 C1 36.65 1 38.3 1 40 C1.763125 40.0825 2.52625 40.165 3.3125 40.25 C6.52373261 41.14615794 7.29374499 42.21611025 9 45 C10.98 44.505 10.98 44.505 13 44 C13.495 46.475 13.495 46.475 14 49 C14.33 49 14.66 49 15 49 C15.33 47.35 15.66 45.7 16 44 C17.32 44.33 18.64 44.66 20 45 C19.67 44.01 19.34 43.02 19 42 C18.01 41.67 17.02 41.34 16 41 C14.3125 39.4375 14.3125 39.4375 13 38 C13.495 39.98 13.495 39.98 14 42 C12.35 42 10.7 42 9 42 C8.6596875 41.0409375 8.6596875 41.0409375 8.3125 40.0625 C7.14749104 37.72806339 7.14749104 37.72806339 4.375 37.25 C3.59125 37.1675 2.8075 37.085 2 37 C2.33 35.68 2.66 34.36 3 33 C3.969375 32.87625 4.93875 32.7525 5.9375 32.625 C6.948125 32.41875 7.95875 32.2125 9 32 C9.33 31.34 9.66 30.68 10 30 C12.475 30.99 12.475 30.99 15 32 C15 32.66 15 33.32 15 34 C15.66 33.67 16.32 33.34 17 33 C17 32.34 17 31.68 17 31 C18.32 30.67 19.64 30.34 21 30 C21 28.35 21 26.7 21 25 C22.32 25.33 23.64 25.66 25 26 C25 25.34 25 24.68 25 24 C24.01 23.67 23.02 23.34 22 23 C22 21.02 22 19.04 22 17 C22.99 17 23.98 17 25 17 C25.268125 17.639375 25.53625 18.27875 25.8125 18.9375 C26.88667752 21.33131686 26.88667752 21.33131686 30 22 C30 23.98 30 25.96 30 28 C30.66 28 31.32 28 32 28 C32 29.98 32 31.96 32 34 C32.99 34 33.98 34 35 34 C35 35.32 35 36.64 35 38 C35.66 37.67 36.32 37.34 37 37 C36.67 35.35 36.34 33.7 36 32 C35.34 32 34.68 32 34 32 C34 30.02 34 28.04 34 26 C32.515 25.505 32.515 25.505 31 25 C31.33 23.35 31.66 21.7 32 20 C33.65 19.67 35.3 19.34 37 19 C37.185625 17.7934375 37.185625 17.7934375 37.375 16.5625 C37.58125 15.716875 37.7875 14.87125 38 14 C38.66 13.67 39.32 13.34 40 13 C40.73075648 10.6859378 41.40138258 8.35171131 42 6 C43.32 5.67 44.64 5.34 46 5 C45.67 6.98 45.34 8.96 45 11 C45.99 11 46.98 11 48 11 C47.67 12.98 47.34 14.96 47 17 C48.485 17.495 48.485 17.495 50 18 C50 18.99 50 19.98 50 21 C50.99 20.34 51.98 19.68 53 19 C55.6875 19.375 55.6875 19.375 58 20 C57.505 21.485 57.505 21.485 57 23 C54.69 23.33 52.38 23.66 50 24 C50.495 25.485 50.495 25.485 51 27 C52.32 27 53.64 27 55 27 C55.495 28.485 55.495 28.485 56 30 C56.66 29.34 57.32 28.68 58 28 C59.32 28 60.64 28 62 28 C61.75 29.875 61.75 29.875 61 32 C58.9375 33.25 58.9375 33.25 57 34 C57 34.66 57 35.32 57 36 C58.11375 35.814375 59.2275 35.62875 60.375 35.4375 C64 35 64 35 66 36 C65.67 36.99 65.34 37.98 65 39 C62.69 39 60.38 39 58 39 C58 40.65 58 42.3 58 44 C59.98 43.67 61.96 43.34 64 43 C64 45 64 47 64 49 C64.66 49.99 65.32 50.98 66 52 C63 54 63 54 60 54 C59.67 55.32 59.34 56.64 59 58 C57.35 58.33 55.7 58.66 54 59 C51.90649311 55.5980513 51.82057837 52.94727588 52 49 C50.68 48.34 49.36 47.68 48 47 C48.33 45.35 48.66 43.7 49 42 C47.35 42.33 45.7 42.66 44 43 C44.495 44.98 44.495 44.98 45 47 C43.02 47 41.04 47 39 47 C39 47.99 39 48.98 39 50 C36.625 49.8125 36.625 49.8125 34 49 C32.6875 46.4375 32.6875 46.4375 32 44 C26.89386809 47.02736973 26.89386809 47.02736973 24 52 C25.98 52.33 27.96 52.66 30 53 C30 53.66 30 54.32 30 55 C30.99 55 31.98 55 33 55 C33 56.65 33 58.3 33 60 C31.35 60.33 29.7 60.66 28 61 C27.505 59.02 27.505 59.02 27 57 C26.773125 57.94875 26.54625 58.8975 26.3125 59.875 C25 63 25 63 22.5 64.125 C21.675 64.41375 20.85 64.7025 20 65 C18.82679535 67.00217545 18.82679535 67.00217545 18 69 C18.96099609 68.36771484 18.96099609 68.36771484 19.94140625 67.72265625 C25.04720636 64.48872921 28.92130378 62.26429114 35 62 C34.505 58.535 34.505 58.535 34 55 C34.99 54.34 35.98 53.68 37 53 C37.66 53.33 38.32 53.66 39 54 C39.33 52.68 39.66 51.36 40 50 C41.32 49.67 42.64 49.34 44 49 C43.835 49.804375 43.67 50.60875 43.5 51.4375 C42.96808161 53.7284443 42.96808161 53.7284443 43 55 C43.99 55 44.98 55 46 55 C45.67 56.65 45.34 58.3 45 60 C46.98 59.34 48.96 58.68 51 58 C50.01 59.32 49.02 60.64 48 62 C49.485 62.495 49.485 62.495 51 63 C51 62.34 51 61.68 51 61 C52.98 60.67 54.96 60.34 57 60 C57.66 60.99 58.32 61.98 59 63 C57.35 63.99 55.7 64.98 54 66 C54.639375 66.226875 55.27875 66.45375 55.9375 66.6875 C58 68 58 68 58.75 70.625 C58.8325 71.40875 58.915 72.1925 59 73 C57.35 72.34 55.7 71.68 54 71 C53.67 71.66 53.34 72.32 53 73 C54.98 73.99 54.98 73.99 57 75 C56.67 76.98 56.34 78.96 56 81 C52.125 78.375 52.125 78.375 51 75 C50.34 75 49.68 75 49 75 C48.04314575 70.78984129 47.86818786 68.74287627 50 65 C36.22701826 64.16842996 36.22701826 64.16842996 24 70 C20.10929915 74.83390105 19.84583188 79.62776479 19.8125 85.6875 C19.79832031 86.84636719 19.78414062 88.00523438 19.76953125 89.19921875 C19.95533381 93.91425887 19.95533381 93.91425887 22 102 C15.73 102 9.46 102 3 102 C3.99 100.02 4.98 98.04 6 96 C7.92882172 87.93401825 7.55578701 80.498696 4 73 C0.50284687 68.4037416 -3.43647435 66.1968593 -9 65 C-16.38723049 64.27270376 -16.38723049 64.27270376 -23 67 C-22.34 67.99 -21.68 68.98 -21 70 C-20.67 68.68 -20.34 67.36 -20 66 C-18.35 66.66 -16.7 67.32 -15 68 C-15 67.34 -15 66.68 -15 66 C-11.535 66.495 -11.535 66.495 -8 67 C-8.33 68.65 -8.66 70.3 -9 72 C-7.68 72.66 -6.36 73.32 -5 74 C-5.495 75.485 -5.495 75.485 -6 77 C-7.32 77 -8.64 77 -10 77 C-10 78.65 -10 80.3 -10 82 C-12.46800047 80.84826645 -14.04783565 79.95216435 -16 78 C-16.99 78.99 -17.98 79.98 -19 81 C-19.66 80.67 -20.32 80.34 -21 80 C-21.103125 80.639375 -21.20625 81.27875 -21.3125 81.9375 C-21.539375 82.618125 -21.76625 83.29875 -22 84 C-23.485 84.495 -23.485 84.495 -25 85 C-25.495 82.525 -25.495 82.525 -26 80 C-27.98 80.495 -27.98 80.495 -30 81 C-30 79.02 -30 77.04 -30 75 C-28.02 74.01 -28.02 74.01 -26 73 C-27.12534105 71.64381501 -27.12534105 71.64381501 -30.0625 71.9375 C-31.031875 71.958125 -32.00125 71.97875 -33 72 C-32.625 70.0625 -32.625 70.0625 -32 68 C-31.01 67.505 -31.01 67.505 -30 67 C-30 66.34 -30 65.68 -30 65 C-30.66 64.67 -31.32 64.34 -32 64 C-31.34 62.68 -30.68 61.36 -30 60 C-31.32 59.01 -32.64 58.02 -34 57 C-33.67 56.01 -33.34 55.02 -33 54 C-31.515 53.505 -31.515 53.505 -30 53 C-30.66 53 -31.32 53 -32 53 C-34 53 -36 53 -38 53 C-38.495 51.515 -38.495 51.515 -39 50 C-38.01 49.34 -37.02 48.68 -36 48 C-36.99 46.68 -37.98 45.36 -39 44 C-34.25 42.875 -34.25 42.875 -32 44 C-32 42.35 -32 40.7 -32 39 C-31.34 39 -30.68 39 -30 39 C-30.33 37.02 -30.66 35.04 -31 33 C-32.32 32.67 -33.64 32.34 -35 32 C-35.33 30.68 -35.66 29.36 -36 28 C-31.50737024 28 -27.43958997 28.2278974 -23 29 C-23.62533375 26.47636012 -23.62533375 26.47636012 -25 24 C-27.54775306 23.10613836 -27.54775306 23.10613836 -30 23 C-30 21.68 -30 20.36 -30 19 C-28.35 19.33 -26.7 19.66 -25 20 C-24.67 19.01 -24.34 18.02 -24 17 C-20.63486826 17.58019513 -19.36548527 18.63451473 -17 21 C-14.89667109 21.71447643 -14.89667109 21.71447643 -13 22 C-15.20927127 18.51167694 -17.08597051 17.26941497 -21 16 C-21 14.68 -21 13.36 -21 12 C-18.525 12.495 -18.525 12.495 -16 13 C-16.495 12.608125 -16.99 12.21625 -17.5 11.8125 C-19.45593143 9.44908285 -19.24207973 7.98564997 -19 5 C-18.38125 5.33 -17.7625 5.66 -17.125 6 C-15.08981656 7.14193235 -15.08981656 7.14193235 -13 7 C-9 7 -9 7 -7 8 C-7 7.01 -7 6.02 -7 5 C-4.525 5.99 -4.525 5.99 -2 7 C-2.04125 6.21625 -2.0825 5.4325 -2.125 4.625 C-2 2 -2 2 0 0 Z " fill="#908C44" transform="translate(67,30)"/>
<path d="M0 0 C1.5 1.375 1.5 1.375 3 3 C3 3.66 3 4.32 3 5 C3.99 5 4.98 5 6 5 C6 4.01 6 3.02 6 2 C8.475 2.495 8.475 2.495 11 3 C11 4.32 11 5.64 11 7 C9.68 7 8.36 7 7 7 C8.7058258 9.77119784 8.7058258 9.77119784 10 11 C10.04063832 12.66617115 10.042721 14.33388095 10 16 C9.0409375 16.3403125 9.0409375 16.3403125 8.0625 16.6875 C5.72806339 17.85250896 5.72806339 17.85250896 5.25 20.625 C5.1675 21.40875 5.085 22.1925 5 23 C4.01 23.33 3.02 23.66 2 24 C2.33 24.33 2.66 24.66 3 25 C3.66 25 4.32 25 5 25 C5 26.98 5 28.96 5 31 C3.02 31.99 3.02 31.99 1 33 C0.938125 32.21625 0.87625 31.4325 0.8125 30.625 C0.26711667 27.78948376 0.26711667 27.78948376 -2.375 26.6875 C-5.03143 25.8733203 -5.03143 25.8733203 -8 26 C-8 26.66 -8 27.32 -8 28 C-6.02 28.33 -4.04 28.66 -2 29 C-1.67 30.98 -1.34 32.96 -1 35 C-0.34 35 0.32 35 1 35 C1 36.65 1 38.3 1 40 C1.763125 40.0825 2.52625 40.165 3.3125 40.25 C6.52373261 41.14615794 7.29374499 42.21611025 9 45 C10.98 44.505 10.98 44.505 13 44 C13.495 46.475 13.495 46.475 14 49 C14.33 49 14.66 49 15 49 C15.33 47.35 15.66 45.7 16 44 C17.32 44.33 18.64 44.66 20 45 C19.67 44.01 19.34 43.02 19 42 C18.01 41.67 17.02 41.34 16 41 C14.3125 39.4375 14.3125 39.4375 13 38 C13.495 39.98 13.495 39.98 14 42 C12.35 42 10.7 42 9 42 C8.6596875 41.0409375 8.6596875 41.0409375 8.3125 40.0625 C7.14749104 37.72806339 7.14749104 37.72806339 4.375 37.25 C3.59125 37.1675 2.8075 37.085 2 37 C2.33 35.68 2.66 34.36 3 33 C3.969375 32.87625 4.93875 32.7525 5.9375 32.625 C6.948125 32.41875 7.95875 32.2125 9 32 C9.33 31.34 9.66 30.68 10 30 C12.475 30.99 12.475 30.99 15 32 C15 32.66 15 33.32 15 34 C15.66 33.67 16.32 33.34 17 33 C17 32.34 17 31.68 17 31 C18.32 30.67 19.64 30.34 21 30 C21 28.35 21 26.7 21 25 C22.32 25.33 23.64 25.66 25 26 C25 25.34 25 24.68 25 24 C24.01 23.67 23.02 23.34 22 23 C22 21.02 22 19.04 22 17 C22.99 17 23.98 17 25 17 C25.268125 17.639375 25.53625 18.27875 25.8125 18.9375 C26.88667752 21.33131686 26.88667752 21.33131686 30 22 C30 23.98 30 25.96 30 28 C30.66 28 31.32 28 32 28 C32 29.98 32 31.96 32 34 C32.99 34 33.98 34 35 34 C35 35.32 35 36.64 35 38 C35.66 37.67 36.32 37.34 37 37 C36.67 35.35 36.34 33.7 36 32 C35.34 32 34.68 32 34 32 C34 30.02 34 28.04 34 26 C33.01 25.67 32.02 25.34 31 25 C31.33 23.35 31.66 21.7 32 20 C33.65 19.67 35.3 19.34 37 19 C37.185625 17.7934375 37.185625 17.7934375 37.375 16.5625 C37.58125 15.716875 37.7875 14.87125 38 14 C38.66 13.67 39.32 13.34 40 13 C40.73075648 10.6859378 41.40138258 8.35171131 42 6 C43.32 5.67 44.64 5.34 46 5 C45.67 6.98 45.34 8.96 45 11 C45.99 11 46.98 11 48 11 C47.67 12.98 47.34 14.96 47 17 C48.485 17.495 48.485 17.495 50 18 C50 18.99 50 19.98 50 21 C50.99 20.34 51.98 19.68 53 19 C55.6875 19.375 55.6875 19.375 58 20 C57.505 21.485 57.505 21.485 57 23 C54.69 23.33 52.38 23.66 50 24 C50.495 25.485 50.495 25.485 51 27 C52.32 27 53.64 27 55 27 C55.495 28.485 55.495 28.485 56 30 C56.66 29.34 57.32 28.68 58 28 C59.32 28 60.64 28 62 28 C61.75 29.875 61.75 29.875 61 32 C58.9375 33.25 58.9375 33.25 57 34 C57 34.66 57 35.32 57 36 C58.11375 35.814375 59.2275 35.62875 60.375 35.4375 C64 35 64 35 66 36 C65.67 36.99 65.34 37.98 65 39 C62.69 39 60.38 39 58 39 C58 40.65 58 42.3 58 44 C59.98 43.67 61.96 43.34 64 43 C64 45 64 47 64 49 C64.66 49.99 65.32 50.98 66 52 C63 54 63 54 60 54 C59.67 55.32 59.34 56.64 59 58 C57.35 58.33 55.7 58.66 54 59 C51.90649311 55.5980513 51.82057837 52.94727588 52 49 C50.68 48.34 49.36 47.68 48 47 C48.33 45.35 48.66 43.7 49 42 C47.35 42.33 45.7 42.66 44 43 C44.495 44.98 44.495 44.98 45 47 C43.02 47 41.04 47 39 47 C39 47.99 39 48.98 39 50 C34.125 49.125 34.125 49.125 33 48 C32.95936168 46.33382885 32.957279 44.66611905 33 43 C31.35 43 29.7 43 28 43 C28 40.69 28 38.38 28 36 C27.34 36 26.68 36 26 36 C26.144375 37.11375 26.28875 38.2275 26.4375 39.375 C26.46986053 45.46956684 22.53149266 49.36207401 19 54 C16.48744649 57.83573258 14.56021186 61.37825216 14 66 C12 65 12 65 11.2109375 62.8828125 C10.93507812 61.97273438 10.65921875 61.06265625 10.375 60.125 C8.40096792 54.37553776 5.4366281 50.07309858 1.70703125 45.3125 C0 43 0 43 -1 40 C-1.66 40.66 -2.32 41.32 -3 42 C-3.268125 40.865625 -3.53625 39.73125 -3.8125 38.5625 C-4.4003125 36.7990625 -4.4003125 36.7990625 -5 35 C-6.485 34.505 -6.485 34.505 -8 34 C-8.33 36.31 -8.66 38.62 -9 41 C-10.093125 41.2475 -11.18625 41.495 -12.3125 41.75 C-16.05908409 43.02002851 -17.10595266 43.65756352 -19 47 C-15.535 46.505 -15.535 46.505 -12 46 C-12 47.32 -12 48.64 -12 50 C-10.68 50 -9.36 50 -8 50 C-8 50.66 -8 51.32 -8 52 C-4.535 51.505 -4.535 51.505 -1 51 C-1.33 50.01 -1.66 49.02 -2 48 C-3.32 48 -4.64 48 -6 48 C-6.495 45.525 -6.495 45.525 -7 43 C-1.35844199 44.36765043 1.73668285 48.48394025 5 53 C8.1445823 58.36969609 9.52824668 62.7931015 9 69 C4.125 67.25 4.125 67.25 3 65 C3.99 65 4.98 65 6 65 C4.8321734 61.18586998 4.8321734 61.18586998 1.875 58.6875 C0.946875 58.3471875 0.946875 58.3471875 0 58 C-0.33 59.32 -0.66 60.64 -1 62 C-1.3403125 60.7934375 -1.3403125 60.7934375 -1.6875 59.5625 C-2.120625 58.716875 -2.55375 57.87125 -3 57 C-5.47608101 56.25475806 -5.47608101 56.25475806 -8 56 C-8.66 55.34 -9.32 54.68 -10 54 C-10.144375 54.763125 -10.28875 55.52625 -10.4375 56.3125 C-11 59 -11 59 -12 62 C-14.15157675 58.77263488 -15.19090344 57.17269253 -14.5625 53.3125 C-14.376875 52.549375 -14.19125 51.78625 -14 51 C-15.32 50.34 -16.64 49.68 -18 49 C-17.67 50.98 -17.34 52.96 -17 55 C-17.99 55 -18.98 55 -20 55 C-19.67 52.69 -19.34 50.38 -19 48 C-19.66 47.67 -20.32 47.34 -21 47 C-21.625 44.4375 -21.625 44.4375 -22 42 C-20.68 42.33 -19.36 42.66 -18 43 C-18 41.35 -18 39.7 -18 38 C-19.65 37.67 -21.3 37.34 -23 37 C-23 38.32 -23 39.64 -23 41 C-23.66 40.67 -24.32 40.34 -25 40 C-24.01 37.03 -24.01 37.03 -23 34 C-20.69 34.99 -18.38 35.98 -16 37 C-15.67 36.01 -15.34 35.02 -15 34 C-13.68 34.66 -12.36 35.32 -11 36 C-11.19471111 34.05000871 -11.19471111 34.05000871 -12 32 C-13.9837767 30.71563266 -13.9837767 30.71563266 -16 30 C-16.33 30.99 -16.66 31.98 -17 33 C-17.99 32.01 -18.98 31.02 -20 30 C-17 28 -17 28 -14 28 C-14 27.236875 -14 26.47375 -14 25.6875 C-14 23.79166667 -14 21.89583333 -14 20 C-14.8971875 19.566875 -14.8971875 19.566875 -15.8125 19.125 C-18 18 -18 18 -21 16 C-21 14.68 -21 13.36 -21 12 C-19.35 12.33 -17.7 12.66 -16 13 C-16.495 12.608125 -16.99 12.21625 -17.5 11.8125 C-19.45593143 9.44908285 -19.24207973 7.98564997 -19 5 C-18.38125 5.33 -17.7625 5.66 -17.125 6 C-15.08981656 7.14193235 -15.08981656 7.14193235 -13 7 C-9 7 -9 7 -7 8 C-7 7.01 -7 6.02 -7 5 C-5.35 5.66 -3.7 6.32 -2 7 C-2.04125 6.21625 -2.0825 5.4325 -2.125 4.625 C-2 2 -2 2 0 0 Z " fill="#DCDAC3" transform="translate(67,30)"/>
<path d="M0 0 C1.5 1.375 1.5 1.375 3 3 C3 3.66 3 4.32 3 5 C3.99 5 4.98 5 6 5 C6 4.01 6 3.02 6 2 C8.475 2.495 8.475 2.495 11 3 C11 4.32 11 5.64 11 7 C9.68 7 8.36 7 7 7 C8.7058258 9.77119784 8.7058258 9.77119784 10 11 C10.04063832 12.66617115 10.042721 14.33388095 10 16 C9.0409375 16.3403125 9.0409375 16.3403125 8.0625 16.6875 C5.72806339 17.85250896 5.72806339 17.85250896 5.25 20.625 C5.1675 21.40875 5.085 22.1925 5 23 C4.01 23.33 3.02 23.66 2 24 C2.33 24.33 2.66 24.66 3 25 C3.66 25 4.32 25 5 25 C5 26.98 5 28.96 5 31 C3.02 31.99 3.02 31.99 1 33 C0.938125 32.21625 0.87625 31.4325 0.8125 30.625 C0.26711667 27.78948376 0.26711667 27.78948376 -2.375 26.6875 C-5.03143 25.8733203 -5.03143 25.8733203 -8 26 C-8 26.66 -8 27.32 -8 28 C-6.02 28.33 -4.04 28.66 -2 29 C-1.67 30.98 -1.34 32.96 -1 35 C-0.34 35 0.32 35 1 35 C1 36.65 1 38.3 1 40 C1.763125 40.0825 2.52625 40.165 3.3125 40.25 C6.52373261 41.14615794 7.29374499 42.21611025 9 45 C10.98 44.505 10.98 44.505 13 44 C13.495 46.97 13.495 46.97 14 50 C13.34 50 12.68 50 12 50 C12 51.98 12 53.96 12 56 C14.475 55.505 14.475 55.505 17 55 C16.01 58.63 15.02 62.26 14 66 C12 65 12 65 11.2109375 62.8828125 C10.93507812 61.97273438 10.65921875 61.06265625 10.375 60.125 C8.40096792 54.37553776 5.4366281 50.07309858 1.70703125 45.3125 C0 43 0 43 -1 40 C-1.66 40.66 -2.32 41.32 -3 42 C-3.268125 40.865625 -3.53625 39.73125 -3.8125 38.5625 C-4.4003125 36.7990625 -4.4003125 36.7990625 -5 35 C-6.485 34.505 -6.485 34.505 -8 34 C-8.33 36.31 -8.66 38.62 -9 41 C-10.093125 41.2475 -11.18625 41.495 -12.3125 41.75 C-16.05908409 43.02002851 -17.10595266 43.65756352 -19 47 C-15.535 46.505 -15.535 46.505 -12 46 C-12 47.32 -12 48.64 -12 50 C-10.68 50 -9.36 50 -8 50 C-8 50.66 -8 51.32 -8 52 C-4.535 51.505 -4.535 51.505 -1 51 C-1.33 50.01 -1.66 49.02 -2 48 C-3.32 48 -4.64 48 -6 48 C-6.495 45.525 -6.495 45.525 -7 43 C-1.35844199 44.36765043 1.73668285 48.48394025 5 53 C8.1445823 58.36969609 9.52824668 62.7931015 9 69 C4.125 67.25 4.125 67.25 3 65 C3.99 65 4.98 65 6 65 C4.8321734 61.18586998 4.8321734 61.18586998 1.875 58.6875 C0.946875 58.3471875 0.946875 58.3471875 0 58 C-0.33 59.32 -0.66 60.64 -1 62 C-1.3403125 60.7934375 -1.3403125 60.7934375 -1.6875 59.5625 C-2.120625 58.716875 -2.55375 57.87125 -3 57 C-5.47608101 56.25475806 -5.47608101 56.25475806 -8 56 C-8.66 55.34 -9.32 54.68 -10 54 C-10.144375 54.763125 -10.28875 55.52625 -10.4375 56.3125 C-11 59 -11 59 -12 62 C-14.15157675 58.77263488 -15.19090344 57.17269253 -14.5625 53.3125 C-14.376875 52.549375 -14.19125 51.78625 -14 51 C-15.32 50.34 -16.64 49.68 -18 49 C-17.67 50.98 -17.34 52.96 -17 55 C-17.99 55 -18.98 55 -20 55 C-19.67 52.69 -19.34 50.38 -19 48 C-19.66 47.67 -20.32 47.34 -21 47 C-21.625 44.4375 -21.625 44.4375 -22 42 C-20.68 42.33 -19.36 42.66 -18 43 C-18 41.35 -18 39.7 -18 38 C-19.65 37.67 -21.3 37.34 -23 37 C-23 38.32 -23 39.64 -23 41 C-23.66 40.67 -24.32 40.34 -25 40 C-24.01 37.03 -24.01 37.03 -23 34 C-20.69 34.99 -18.38 35.98 -16 37 C-15.67 36.01 -15.34 35.02 -15 34 C-13.68 34.66 -12.36 35.32 -11 36 C-11.19471111 34.05000871 -11.19471111 34.05000871 -12 32 C-13.9837767 30.71563266 -13.9837767 30.71563266 -16 30 C-16.33 30.99 -16.66 31.98 -17 33 C-17.99 32.01 -18.98 31.02 -20 30 C-17 28 -17 28 -14 28 C-14 27.236875 -14 26.47375 -14 25.6875 C-14 23.79166667 -14 21.89583333 -14 20 C-14.8971875 19.566875 -14.8971875 19.566875 -15.8125 19.125 C-18 18 -18 18 -21 16 C-21 14.68 -21 13.36 -21 12 C-19.35 12.33 -17.7 12.66 -16 13 C-16.495 12.608125 -16.99 12.21625 -17.5 11.8125 C-19.45593143 9.44908285 -19.24207973 7.98564997 -19 5 C-18.38125 5.33 -17.7625 5.66 -17.125 6 C-15.08981656 7.14193235 -15.08981656 7.14193235 -13 7 C-9 7 -9 7 -7 8 C-7 7.01 -7 6.02 -7 5 C-5.35 5.66 -3.7 6.32 -2 7 C-2.04125 6.21625 -2.0825 5.4325 -2.125 4.625 C-2 2 -2 2 0 0 Z " fill="#DBD7BE" transform="translate(67,30)"/>
<path d="M0 0 C3.33864404 0.57562828 4.69102632 1.59063616 7 4 C7.99 4.33 8.98 4.66 10 5 C10 6.98 10 8.96 10 11 C8.35 11.66 6.7 12.32 5 13 C5.66 13.66 6.32 14.32 7 15 C7.33 14.34 7.66 13.68 8 13 C9.65 13.66 11.3 14.32 13 15 C13 16.32 13 17.64 13 19 C11.68 18.67 10.36 18.34 9 18 C8.67 18.66 8.34 19.32 8 20 C3.25 19.125 3.25 19.125 1 18 C0.61781233 19.65614657 0.28604898 21.32457024 0 23 C0.33 23.33 0.66 23.66 1 24 C1 22.68 1 21.36 1 20 C2.65 20.33 4.3 20.66 6 21 C6 22.65 6 24.3 6 26 C5.01 26 4.02 26 3 26 C3.350625 26.680625 3.70125 27.36125 4.0625 28.0625 C5.22620603 31.7087789 4.72845102 34.28489978 4 38 C4.99 38 5.98 38 7 38 C6.67 36.02 6.34 34.04 6 32 C7.32 32.33 8.64 32.66 10 33 C11.125 37.75 11.125 37.75 10 40 C10.27942455 41.67654729 10.60828247 43.34608154 11 45 C8.36 44.67 5.72 44.34 3 44 C3.33 44.66 3.66 45.32 4 46 C3.01 46.99 2.02 47.98 1 49 C1.66 50.32 2.32 51.64 3 53 C3.33 51.68 3.66 50.36 4 49 C5.65 49.66 7.3 50.32 9 51 C9 50.34 9 49.68 9 49 C12.465 49.495 12.465 49.495 16 50 C15.67 51.65 15.34 53.3 15 55 C16.32 55.66 17.64 56.32 19 57 C18.67 57.99 18.34 58.98 18 60 C16.68 60 15.36 60 14 60 C14 61.65 14 63.3 14 65 C11.53199953 63.84826645 9.95216435 62.95216435 8 61 C7.01 61.99 6.02 62.98 5 64 C4.34 63.67 3.68 63.34 3 63 C2.896875 63.639375 2.79375 64.27875 2.6875 64.9375 C2.460625 65.618125 2.23375 66.29875 2 67 C0.515 67.495 0.515 67.495 -1 68 C-1.495 65.525 -1.495 65.525 -2 63 C-3.98 63.495 -3.98 63.495 -6 64 C-6 62.02 -6 60.04 -6 58 C-4.68 57.34 -3.36 56.68 -2 56 C-3.12534105 54.64381501 -3.12534105 54.64381501 -6.0625 54.9375 C-7.031875 54.958125 -8.00125 54.97875 -9 55 C-8.625 53.0625 -8.625 53.0625 -8 51 C-7.01 50.505 -7.01 50.505 -6 50 C-6 49.34 -6 48.68 -6 48 C-6.66 47.67 -7.32 47.34 -8 47 C-7.34 45.68 -6.68 44.36 -6 43 C-7.32 42.01 -8.64 41.02 -10 40 C-9.67 39.01 -9.34 38.02 -9 37 C-7.515 36.505 -7.515 36.505 -6 36 C-6.66 36 -7.32 36 -8 36 C-10 36 -12 36 -14 36 C-14.495 34.515 -14.495 34.515 -15 33 C-14.01 32.34 -13.02 31.68 -12 31 C-12.99 29.68 -13.98 28.36 -15 27 C-10.25 25.875 -10.25 25.875 -8 27 C-8 25.35 -8 23.7 -8 22 C-7.34 22 -6.68 22 -6 22 C-6.33 20.02 -6.66 18.04 -7 16 C-8.32 15.67 -9.64 15.34 -11 15 C-11.33 13.68 -11.66 12.36 -12 11 C-7.50737024 11 -3.43958997 11.2278974 1 12 C0.37466625 9.47636012 0.37466625 9.47636012 -1 7 C-3.54775306 6.10613836 -3.54775306 6.10613836 -6 6 C-6 4.68 -6 3.36 -6 2 C-4.35 2.33 -2.7 2.66 -1 3 C-0.67 2.01 -0.34 1.02 0 0 Z " fill="#E1DFCC" transform="translate(43,47)"/>
<path d="M0 0 C1.5 1.375 1.5 1.375 3 3 C3 3.66 3 4.32 3 5 C3.99 5 4.98 5 6 5 C6 4.01 6 3.02 6 2 C8.475 2.495 8.475 2.495 11 3 C11 4.32 11 5.64 11 7 C9.68 7 8.36 7 7 7 C8.7058258 9.77119784 8.7058258 9.77119784 10 11 C10.04063832 12.66617115 10.042721 14.33388095 10 16 C9.360625 16.226875 8.72125 16.45375 8.0625 16.6875 C5.72806339 17.85250896 5.72806339 17.85250896 5.25 20.625 C5.1675 21.40875 5.085 22.1925 5 23 C4.01 23.33 3.02 23.66 2 24 C2.33 24.33 2.66 24.66 3 25 C3.66 25 4.32 25 5 25 C5 26.98 5 28.96 5 31 C3.02 31.99 3.02 31.99 1 33 C0.938125 32.21625 0.87625 31.4325 0.8125 30.625 C0.27334146 27.79924691 0.27334146 27.79924691 -2.3125 26.75 C-4.89794249 25.97914431 -4.89794249 25.97914431 -7.1875 25.625 C-9 25 -9 25 -10 23.0625 C-10.33 22.381875 -10.66 21.70125 -11 21 C-12.78228936 19.85790183 -12.78228936 19.85790183 -15 19 C-17 18 -19 17 -21 16 C-21 14.68 -21 13.36 -21 12 C-18.525 12.495 -18.525 12.495 -16 13 C-16.495 12.608125 -16.99 12.21625 -17.5 11.8125 C-19.45593143 9.44908285 -19.24207973 7.98564997 -19 5 C-18.38125 5.33 -17.7625 5.66 -17.125 6 C-15.08981656 7.14193235 -15.08981656 7.14193235 -13 7 C-9 7 -9 7 -7 8 C-7 7.01 -7 6.02 -7 5 C-4.525 5.99 -4.525 5.99 -2 7 C-2.04125 6.21625 -2.0825 5.4325 -2.125 4.625 C-2 2 -2 2 0 0 Z " fill="#E1E0CC" transform="translate(67,30)"/>
<path d="M0 0 C3.33864404 0.57562828 4.69102632 1.59063616 7 4 C7.99 4.33 8.98 4.66 10 5 C10 6.98 10 8.96 10 11 C8.35 11.66 6.7 12.32 5 13 C5.66 13.66 6.32 14.32 7 15 C7.33 14.34 7.66 13.68 8 13 C9.65 13.66 11.3 14.32 13 15 C13 16.32 13 17.64 13 19 C11.68 18.67 10.36 18.34 9 18 C8.67 18.66 8.34 19.32 8 20 C3.25 19.125 3.25 19.125 1 18 C0.61781233 19.65614657 0.28604898 21.32457024 0 23 C0.33 23.33 0.66 23.66 1 24 C1 22.68 1 21.36 1 20 C2.65 20.33 4.3 20.66 6 21 C6 22.65 6 24.3 6 26 C5.01 26 4.02 26 3 26 C2.34 27.98 1.68 29.96 1 32 C0.4225 31.525625 -0.155 31.05125 -0.75 30.5625 C-2.94270395 29.03978893 -4.4310592 28.53150499 -7 28 C-8 27 -8 27 -8.0625 24.4375 C-8.041875 23.633125 -8.02125 22.82875 -8 22 C-7.34 22 -6.68 22 -6 22 C-6.33 20.02 -6.66 18.04 -7 16 C-8.32 15.67 -9.64 15.34 -11 15 C-11.33 13.68 -11.66 12.36 -12 11 C-7.50737024 11 -3.43958997 11.2278974 1 12 C0.37466625 9.47636012 0.37466625 9.47636012 -1 7 C-3.54775306 6.10613836 -3.54775306 6.10613836 -6 6 C-6 4.68 -6 3.36 -6 2 C-4.35 2.33 -2.7 2.66 -1 3 C-0.67 2.01 -0.34 1.02 0 0 Z " fill="#CFCDAE" transform="translate(43,47)"/>
<path d="M0 0 C1.0725 0.01417969 2.145 0.02835937 3.25 0.04296875 C4.3225 0.04941406 5.395 0.05585937 6.5 0.0625 C9.25 0.23046875 9.25 0.23046875 11.25 1.23046875 C10.92 2.22046875 10.59 3.21046875 10.25 4.23046875 C7.94 4.23046875 5.63 4.23046875 3.25 4.23046875 C3.25 5.88046875 3.25 7.53046875 3.25 9.23046875 C5.23 8.90046875 7.21 8.57046875 9.25 8.23046875 C9.25 10.23046875 9.25 12.23046875 9.25 14.23046875 C10.24 15.71546875 10.24 15.71546875 11.25 17.23046875 C8.25 19.23046875 8.25 19.23046875 5.25 19.23046875 C4.92 20.55046875 4.59 21.87046875 4.25 23.23046875 C2.6 23.56046875 0.95 23.89046875 -0.75 24.23046875 C-2.84350689 20.82852005 -2.92942163 18.17774463 -2.75 14.23046875 C-4.07 13.57046875 -5.39 12.91046875 -6.75 12.23046875 C-6.42 10.58046875 -6.09 8.93046875 -5.75 7.23046875 C-7.4 7.56046875 -9.05 7.89046875 -10.75 8.23046875 C-10.42 6.58046875 -10.09 4.93046875 -9.75 3.23046875 C-8.96625 3.10671875 -8.1825 2.98296875 -7.375 2.85546875 C-4.08667354 2.07253388 -3.41559376 0.28625005 0 0 Z " fill="#D8D6BD" transform="translate(121.75,64.76953125)"/>
<path d="M0 0 C0.66 1.32 1.32 2.64 2 4 C1.67 4.33 1.34 4.66 1 5 C0.80850919 8.63194641 0.80850919 8.63194641 2 12 C0.7934375 12.61875 0.7934375 12.61875 -0.4375 13.25 C-3.14109718 14.73452331 -3.14109718 14.73452331 -3.8125 17.1875 C-3.874375 17.785625 -3.93625 18.38375 -4 19 C-3.34 19.33 -2.68 19.66 -2 20 C-2.66 21.32 -3.32 22.64 -4 24 C-3.2575 23.67 -2.515 23.34 -1.75 23 C1.59644147 21.78311219 3.94818508 21.5325267 7.25 23 C7.8275 23.33 8.405 23.66 9 24 C8.34 22.02 7.68 20.04 7 18 C7.99 18 8.98 18 10 18 C9.814375 17.29875 9.62875 16.5975 9.4375 15.875 C8.94843024 12.66111302 9.33768442 10.16439664 10 7 C10.99 7.33 11.98 7.66 13 8 C13.6875 10.0625 13.6875 10.0625 14 12 C13.34 12 12.68 12 12 12 C12 13.98 12 15.96 12 18 C12.99 18 13.98 18 15 18 C14.67 19.32 14.34 20.64 14 22 C12.68 21.34 11.36 20.68 10 20 C10.33 21.98 10.66 23.96 11 26 C9.35 26 7.7 26 6 26 C6.33 26.99 6.66 27.98 7 29 C4 29 4 29 2.4375 27.5625 C1.963125 27.046875 1.48875 26.53125 1 26 C0.34 25.67 -0.32 25.34 -1 25 C-1.33 25.99 -1.66 26.98 -2 28 C-3.98 28.33 -5.96 28.66 -8 29 C-8.33 29.99 -8.66 30.98 -9 32 C-7.02 32 -5.04 32 -3 32 C-2.67 33.32 -2.34 34.64 -2 36 C-0.35 36.33 1.3 36.66 3 37 C2.67 35.68 2.34 34.36 2 33 C5 34 5 34 6 36 C6.99 36 7.98 36 9 36 C9 37.32 9 38.64 9 40 C7.68 40 6.36 40 5 40 C5 41.65 5 43.3 5 45 C4.01 45.495 4.01 45.495 3 46 C3 45.34 3 44.68 3 44 C2.34 43.67 1.68 43.34 1 43 C1.33 41.68 1.66 40.36 2 39 C0.35 39.66 -1.3 40.32 -3 41 C-3.61875 39.7934375 -3.61875 39.7934375 -4.25 38.5625 C-5.73452331 35.85890282 -5.73452331 35.85890282 -8.1875 35.1875 C-9.0846875 35.0946875 -9.0846875 35.0946875 -10 35 C-10 33.35 -10 31.7 -10 30 C-10.66 30 -11.32 30 -12 30 C-12.33 28.02 -12.66 26.04 -13 24 C-14.98 23.67 -16.96 23.34 -19 23 C-19 22.34 -19 21.68 -19 21 C-18.01 21 -17.02 21 -16 21 C-15.67 20.34 -15.34 19.68 -15 19 C-12.33264727 21.48952921 -10.44253657 23.63408134 -9 27 C-8.34 26.67 -7.68 26.34 -7 26 C-6.34227572 22.97065509 -6.34227572 22.97065509 -6 20 C-7.98 20.99 -7.98 20.99 -10 22 C-9.6875 20.0625 -9.6875 20.0625 -9 18 C-8.01 17.67 -7.02 17.34 -6 17 C-5.65657551 15.66923011 -5.32380126 14.33568021 -5 13 C-4.01 12.34 -3.02 11.68 -2 11 C-1.74969023 8.41619823 -1.74969023 8.41619823 -2 6 C-2.66 6 -3.32 6 -4 6 C-4 4.68 -4 3.36 -4 2 C-2.68 2 -1.36 2 0 2 C0 1.34 0 0.68 0 0 Z " fill="#DFDEC9" transform="translate(78,35)"/>
<path d="M0 0 C2.475 0.99 2.475 0.99 5 2 C5 1.34 5 0.68 5 0 C7.31 0.33 9.62 0.66 12 1 C11.67 2.65 11.34 4.3 11 6 C12.32 6.66 13.64 7.32 15 8 C14.67 8.99 14.34 9.98 14 11 C12.68 11 11.36 11 10 11 C10 12.65 10 14.3 10 16 C7.53199953 14.84826645 5.95216435 13.95216435 4 12 C3.01 12.99 2.02 13.98 1 15 C0.34 14.67 -0.32 14.34 -1 14 C-1.103125 14.639375 -1.20625 15.27875 -1.3125 15.9375 C-1.539375 16.618125 -1.76625 17.29875 -2 18 C-2.99 18.33 -3.98 18.66 -5 19 C-5.33 17.35 -5.66 15.7 -6 14 C-7.32 14.33 -8.64 14.66 -10 15 C-10 13.02 -10 11.04 -10 9 C-9.360625 8.773125 -8.72125 8.54625 -8.0625 8.3125 C-5.72806339 7.14749104 -5.72806339 7.14749104 -5.25 4.375 C-5.1675 3.59125 -5.085 2.8075 -5 2 C-4.01 2 -3.02 2 -2 2 C-1.67 2.66 -1.34 3.32 -1 4 C-0.67 2.68 -0.34 1.36 0 0 Z " fill="#D8D4B9" transform="translate(47,96)"/>
<path d="M0 0 C3.465 1.485 3.465 1.485 7 3 C7.33 2.01 7.66 1.02 8 0 C10.475 0.99 10.475 0.99 13 2 C12.67 2.66 12.34 3.32 12 4 C10.35 4 8.7 4 7 4 C7.66 5.32 8.32 6.64 9 8 C7.35 9.65 5.7 11.3 4 13 C7.465 12.505 7.465 12.505 11 12 C11 13.32 11 14.64 11 16 C12.32 16 13.64 16 15 16 C15 16.66 15 17.32 15 18 C18.465 17.505 18.465 17.505 22 17 C21.67 16.01 21.34 15.02 21 14 C19.68 14 18.36 14 17 14 C16.67 12.35 16.34 10.7 16 9 C21.64155801 10.36765043 24.73668285 14.48394025 28 19 C31.1445823 24.36969609 32.52824668 28.7931015 32 35 C27.125 33.25 27.125 33.25 26 31 C26.99 31 27.98 31 29 31 C27.8321734 27.18586998 27.8321734 27.18586998 24.875 24.6875 C23.946875 24.3471875 23.946875 24.3471875 23 24 C22.67 25.32 22.34 26.64 22 28 C21.6596875 26.7934375 21.6596875 26.7934375 21.3125 25.5625 C20.879375 24.716875 20.44625 23.87125 20 23 C17.52391899 22.25475806 17.52391899 22.25475806 15 22 C14.34 21.34 13.68 20.68 13 20 C12.7834375 21.1446875 12.7834375 21.1446875 12.5625 22.3125 C12 25 12 25 11 28 C8.84842325 24.77263488 7.80909656 23.17269253 8.4375 19.3125 C8.7159375 18.1678125 8.7159375 18.1678125 9 17 C7.68 16.34 6.36 15.68 5 15 C5.33 16.98 5.66 18.96 6 21 C5.01 21 4.02 21 3 21 C3.33 18.69 3.66 16.38 4 14 C3.34 13.67 2.68 13.34 2 13 C1.375 10.4375 1.375 10.4375 1 8 C2.32 8.33 3.64 8.66 5 9 C5 7.35 5 5.7 5 4 C3.35 3.67 1.7 3.34 0 3 C0 4.32 0 5.64 0 7 C-0.66 6.67 -1.32 6.34 -2 6 C-1.34 4.02 -0.68 2.04 0 0 Z " fill="#DBD7BD" transform="translate(44,64)"/>
<path d="M0 0 C0.33 0.99 0.66 1.98 1 3 C1.598125 2.649375 2.19625 2.29875 2.8125 1.9375 C5 1 5 1 8 2 C7.34 2.33 6.68 2.66 6 3 C6.65585189 6.60992379 6.65585189 6.60992379 8 10 C7.39421747 12.01927511 6.73080266 14.02253397 6 16 C3.36 16 0.72 16 -2 16 C-1.01 13.69 -0.02 11.38 1 9 C-0.99983534 9.79117904 -0.99983534 9.79117904 -3 11 C-3.33 11.99 -3.66 12.98 -4 14 C-6.0625 14.6875 -6.0625 14.6875 -8 15 C-8 17.31 -8 19.62 -8 22 C-8.74765625 22.25394531 -9.4953125 22.50789063 -10.265625 22.76953125 C-11.25046875 23.11371094 -12.2353125 23.45789063 -13.25 23.8125 C-14.22453125 24.14894531 -15.1990625 24.48539063 -16.203125 24.83203125 C-18.86537588 25.94378127 -20.73495089 27.25110146 -23 29 C-23.66 29 -24.32 29 -25 29 C-24.67 27.35 -24.34 25.7 -24 24 C-23.21625 23.938125 -22.4325 23.87625 -21.625 23.8125 C-20.75875 23.544375 -19.8925 23.27625 -19 23 C-17.62533375 20.52363988 -17.62533375 20.52363988 -17 18 C-17.66 17.67 -18.32 17.34 -19 17 C-17.35 16.67 -15.7 16.34 -14 16 C-14.33 17.65 -14.66 19.3 -15 21 C-13.35 20.67 -11.7 20.34 -10 20 C-10 18.35 -10 16.7 -10 15 C-10.99 15 -11.98 15 -13 15 C-13 14.34 -13 13.68 -13 13 C-15.31 13 -17.62 13 -20 13 C-18.78765268 8.28531599 -16.41445146 6.52327801 -12.55859375 3.91796875 C-11 3 -11 3 -10 3 C-9.938125 3.78375 -9.87625 4.5675 -9.8125 5.375 C-9.544375 6.24125 -9.27625 7.1075 -9 8 C-6.52363988 9.37466625 -6.52363988 9.37466625 -4 10 C-4 9.01 -4 8.02 -4 7 C-2.02 7 -0.04 7 2 7 C1.484375 6.401875 0.96875 5.80375 0.4375 5.1875 C-0.036875 4.465625 -0.51125 3.74375 -1 3 C-0.67 2.01 -0.34 1.02 0 0 Z " fill="#E5E4D4" transform="translate(110,70)"/>
<path d="M0 0 C0.99 0 1.98 0 3 0 C2.835 0.804375 2.67 1.60875 2.5 2.4375 C1.96808161 4.7284443 1.96808161 4.7284443 2 6 C2.99 6 3.98 6 5 6 C4.67 7.65 4.34 9.3 4 11 C5.98 10.34 7.96 9.68 10 9 C9.01 10.32 8.02 11.64 7 13 C7.99 13.33 8.98 13.66 10 14 C10 13.34 10 12.68 10 12 C11.98 11.67 13.96 11.34 16 11 C16.99 12.485 16.99 12.485 18 14 C16.35 14.99 14.7 15.98 13 17 C13.639375 17.226875 14.27875 17.45375 14.9375 17.6875 C17 19 17 19 17.75 21.625 C17.8325 22.40875 17.915 23.1925 18 24 C16.35 23.34 14.7 22.68 13 22 C12.67 22.66 12.34 23.32 12 24 C13.32 24.66 14.64 25.32 16 26 C15.67 27.98 15.34 29.96 15 32 C11.125 29.375 11.125 29.375 10 26 C9.34 26 8.68 26 8 26 C7.04314575 21.78984129 6.86818786 19.74287627 9 16 C8.25234375 15.95101562 7.5046875 15.90203125 6.734375 15.8515625 C5.74953125 15.77679688 4.7646875 15.70203125 3.75 15.625 C2.77546875 15.55539063 1.8009375 15.48578125 0.796875 15.4140625 C-1.95468562 15.00670855 -3.72919547 14.59797356 -6 13 C-6.75 9.375 -6.75 9.375 -7 6 C-6.01 5.34 -5.02 4.68 -4 4 C-3.34 4.33 -2.68 4.66 -2 5 C-1.855625 4.360625 -1.71125 3.72125 -1.5625 3.0625 C-1 1 -1 1 0 0 Z " fill="#C3C09A" transform="translate(108,79)"/>
<path d="M0 0 C0.33 0.99 0.66 1.98 1 3 C1.66 2.34 2.32 1.68 3 1 C4.32 1 5.64 1 7 1 C6.63206382 3.66753731 6.18001672 4.81998328 4.25 6.75 C1.62056017 8.21079991 -0.0374441 8.24687966 -3 8 C-3.33 8.99 -3.66 9.98 -4 11 C-4.763125 10.938125 -5.52625 10.87625 -6.3125 10.8125 C-9.04525312 10.74101915 -9.04525312 10.74101915 -10.8125 12.5 C-11.204375 12.995 -11.59625 13.49 -12 14 C-11.34 15.98 -10.68 17.96 -10 20 C-11.98 20 -13.96 20 -16 20 C-16 20.99 -16 21.98 -16 23 C-20.875 22.125 -20.875 22.125 -22 21 C-22.04063832 19.33382885 -22.042721 17.66611905 -22 16 C-23.32 15.34 -24.64 14.68 -26 14 C-25.360625 13.773125 -24.72125 13.54625 -24.0625 13.3125 C-21.72806339 12.14749104 -21.72806339 12.14749104 -21.25 9.375 C-21.1675 8.59125 -21.085 7.8075 -21 7 C-20.67 8.32 -20.34 9.64 -20 11 C-18.35 10.67 -16.7 10.34 -15 10 C-15 9.34 -15 8.68 -15 8 C-14.34 8 -13.68 8 -13 8 C-13 8.66 -13 9.32 -13 10 C-11.35 9.67 -9.7 9.34 -8 9 C-7.67 7.35 -7.34 5.7 -7 4 C-7.99 3.67 -8.98 3.34 -10 3 C-6.48812804 0.59185923 -4.27343092 -0.36629408 0 0 Z " fill="#DCDAC3" transform="translate(122,57)"/>
<path d="M0 0 C6.6 0.6 6.6 0.6 9 3 C9.1953125 5.6015625 9.1953125 5.6015625 9.125 8.625 C9.10695313 9.62789062 9.08890625 10.63078125 9.0703125 11.6640625 C9.03550781 12.82035156 9.03550781 12.82035156 9 14 C8.01 14.495 8.01 14.495 7 15 C7.33 16.65 7.66 18.3 8 20 C7.4225 19.835 6.845 19.67 6.25 19.5 C2.30640798 18.62364622 -1.12701679 19.13933706 -5 20 C-4.814375 19.443125 -4.62875 18.88625 -4.4375 18.3125 C-3.92448835 15.600867 -4.3359276 13.65628961 -5 11 C-3.35 9.68 -1.7 8.36 0 7 C-0.33 6.67 -0.66 6.34 -1 6 C-1.125 3.5 -1.125 3.5 -1 1 C-0.67 0.67 -0.34 0.34 0 0 Z " fill="#DBD7BE" transform="translate(79,39)"/>
<path d="M0 0 C3.16115776 1.36983503 3.9927092 1.9890638 6 5 C7.32 4.34 8.64 3.68 10 3 C10.99 4.485 10.99 4.485 12 6 C12.99 6.33 13.98 6.66 15 7 C15 8.65 15 10.3 15 12 C13.68 12 12.36 12 11 12 C10.67 11.67 10.34 11.34 10 11 C10 12.98 10 14.96 10 17 C8.02 17.99 8.02 17.99 6 19 C5.34 18.34 4.68 17.68 4 17 C3.01 17 2.02 17 1 17 C0.896875 16.360625 0.79375 15.72125 0.6875 15.0625 C0.460625 14.381875 0.23375 13.70125 0 13 C-0.99 12.67 -1.98 12.34 -3 12 C-3 10.02 -3 8.04 -3 6 C-2.34 5.67 -1.68 5.34 -1 5 C-0.34444881 2.47266765 -0.34444881 2.47266765 0 0 Z " fill="#D5D4B9" transform="translate(91,30)"/>
<path d="M0 0 C2.475 0.99 2.475 0.99 5 2 C5 2.66 5 3.32 5 4 C5.66 3.67 6.32 3.34 7 3 C7 2.34 7 1.68 7 1 C8.65 1 10.3 1 12 1 C12.33 2.65 12.66 4.3 13 6 C12.01 6 11.02 6 10 6 C10.33 6.99 10.66 7.98 11 9 C11.99 8.34 12.98 7.68 14 7 C15.125 12.75 15.125 12.75 14 15 C12.0625 14.625 12.0625 14.625 10 14 C9.67 13.34 9.34 12.68 9 12 C8.01 11.67 7.02 11.34 6 11 C4.3125 9.4375 4.3125 9.4375 3 8 C3.33 9.32 3.66 10.64 4 12 C2.35 12 0.7 12 -1 12 C-1.3403125 11.0409375 -1.3403125 11.0409375 -1.6875 10.0625 C-2.85250896 7.72806339 -2.85250896 7.72806339 -5.625 7.25 C-6.40875 7.1675 -7.1925 7.085 -8 7 C-7.67 5.68 -7.34 4.36 -7 3 C-5.5459375 2.814375 -5.5459375 2.814375 -4.0625 2.625 C-2.5465625 2.315625 -2.5465625 2.315625 -1 2 C-0.67 1.34 -0.34 0.68 0 0 Z " fill="#D2CDAE" transform="translate(77,60)"/>
<path d="M0 0 C1.5 1.375 1.5 1.375 3 3 C3 3.66 3 4.32 3 5 C3.99 5 4.98 5 6 5 C6 4.01 6 3.02 6 2 C7.65 2.33 9.3 2.66 11 3 C11 4.32 11 5.64 11 7 C9.68 7 8.36 7 7 7 C8.7058258 9.77119784 8.7058258 9.77119784 10 11 C10.04063832 12.66617115 10.042721 14.33388095 10 16 C9.360625 16.226875 8.72125 16.45375 8.0625 16.6875 C5.72806339 17.85250896 5.72806339 17.85250896 5.25 20.625 C5.1675 21.40875 5.085 22.1925 5 23 C3.68 23 2.36 23 1 23 C1.33 21.02 1.66 19.04 2 17 C1.01 17.33 0.02 17.66 -1 18 C-2 17 -2 17 -2.0625 14.4375 C-2.041875 13.633125 -2.02125 12.82875 -2 12 C-1.01 11.67 -0.02 11.34 1 11 C1.73323796 8.98491642 1.73323796 8.98491642 2 7 C0.68 6.67 -0.64 6.34 -2 6 C-1.125 1.125 -1.125 1.125 0 0 Z " fill="#D2D0B3" transform="translate(67,30)"/>
<path d="M0 0 C2.375 -0.125 2.375 -0.125 5 0 C5.66 0.66 6.32 1.32 7 2 C8.32 1.34 9.64 0.68 11 0 C10.125 4.75 10.125 4.75 9 7 C9.66 7 10.32 7 11 7 C11 8.98 11 10.96 11 13 C9.68 13 8.36 13 7 13 C6.67 12.67 6.34 12.34 6 12 C5.01 13.485 5.01 13.485 4 15 C3.01 15 2.02 15 1 15 C1 13.35 1 11.7 1 10 C-0.65 10 -2.3 10 -4 10 C-3.34 8.68 -2.68 7.36 -2 6 C-1.34 6 -0.68 6 0 6 C0 5.34 0 4.68 0 4 C-0.66 4 -1.32 4 -2 4 C-1.34 2.68 -0.68 1.36 0 0 Z " fill="#DEDCC7" transform="translate(103,96)"/>
<path d="M0 0 C3.875 0.875 3.875 0.875 5 2 C5.04080783 3.99958364 5.04254356 6.00045254 5 8 C3.68 8 2.36 8 1 8 C1.70339566 10.50965614 1.70339566 10.50965614 3 13 C5.04105639 13.88693303 5.04105639 13.88693303 7 14 C7 14.99 7 15.98 7 17 C4.69 17.33 2.38 17.66 0 18 C0 17.34 0 16.68 0 16 C-1.32 16 -2.64 16 -4 16 C-4.33 15.01 -4.66 14.02 -5 13 C-6.98 13 -8.96 13 -11 13 C-9.63016497 9.83884224 -9.0109362 9.0072908 -6 7 C-3.3125 6.875 -3.3125 6.875 -1 7 C-0.67 4.69 -0.34 2.38 0 0 Z " fill="#D3D1B5" transform="translate(59,64)"/>
<path d="M0 0 C1.0725 0.01417969 2.145 0.02835937 3.25 0.04296875 C4.3225 0.04941406 5.395 0.05585937 6.5 0.0625 C9.25 0.23046875 9.25 0.23046875 11.25 1.23046875 C10.92 2.22046875 10.59 3.21046875 10.25 4.23046875 C7.94 4.23046875 5.63 4.23046875 3.25 4.23046875 C3.25 5.88046875 3.25 7.53046875 3.25 9.23046875 C1.27 10.22046875 1.27 10.22046875 -0.75 11.23046875 C-1.08 10.57046875 -1.41 9.91046875 -1.75 9.23046875 C-2.41 10.88046875 -3.07 12.53046875 -3.75 14.23046875 C-4.74 13.57046875 -5.73 12.91046875 -6.75 12.23046875 C-6.42 10.58046875 -6.09 8.93046875 -5.75 7.23046875 C-7.4 7.56046875 -9.05 7.89046875 -10.75 8.23046875 C-10.42 6.58046875 -10.09 4.93046875 -9.75 3.23046875 C-8.96625 3.10671875 -8.1825 2.98296875 -7.375 2.85546875 C-4.08667354 2.07253388 -3.41559376 0.28625005 0 0 Z " fill="#DCD9C2" transform="translate(121.75,64.76953125)"/>
<path d="M0 0 C5.64155801 1.36765043 8.73668285 5.48394025 12 10 C15.1445823 15.36969609 16.52824668 19.7931015 16 26 C11.125 24.25 11.125 24.25 10 22 C10.99 22 11.98 22 13 22 C11.8321734 18.18586998 11.8321734 18.18586998 8.875 15.6875 C8.25625 15.460625 7.6375 15.23375 7 15 C6.67 16.32 6.34 17.64 6 19 C4.9956049 16.58945177 4.06741012 14.30334552 3.5 11.75 C3.2525 10.88375 3.2525 10.88375 3 10 C2.34 9.67 1.68 9.34 1 9 C2.65 8.67 4.3 8.34 6 8 C5.67 7.01 5.34 6.02 5 5 C3.68 5 2.36 5 1 5 C0.67 3.35 0.34 1.7 0 0 Z " fill="#DFDDC8" transform="translate(60,73)"/>
<path d="M0 0 C0.99 0 1.98 0 3 0 C3 1.65 3 3.3 3 5 C2.01 5 1.02 5 0 5 C0 6.65 0 8.3 0 10 C0.99 10 1.98 10 3 10 C3 12.97 3 15.94 3 19 C3.99 18.67 4.98 18.34 6 18 C6 19.98 6 21.96 6 24 C4.02 24.99 4.02 24.99 2 26 C1.9175 25.21625 1.835 24.4325 1.75 23.625 C1.5025 22.75875 1.255 21.8925 1 21 C0.38125 20.690625 -0.2375 20.38125 -0.875 20.0625 C-4.04162985 18.47918507 -4.69605121 16.19467453 -6 13 C-6 12.01 -6 11.02 -6 10 C-4.515 10.99 -4.515 10.99 -3 12 C-3.33 9.69 -3.66 7.38 -4 5 C-3.01 4.67 -2.02 4.34 -1 4 C-0.26676204 1.98491642 -0.26676204 1.98491642 0 0 Z " fill="#DAD8C0" transform="translate(66,37)"/>
<path d="M0 0 C5.30097087 3.80582524 5.30097087 3.80582524 6 8 C6.66 8.66 7.32 9.32 8 10 C7.67 10.99 7.34 11.98 7 13 C8.98 13 10.96 13 13 13 C13.33 14.32 13.66 15.64 14 17 C15.65 17.33 17.3 17.66 19 18 C18.67 16.68 18.34 15.36 18 14 C21 15 21 15 22 17 C22.99 17 23.98 17 25 17 C25 18.32 25 19.64 25 21 C23.68 21 22.36 21 21 21 C21 22.65 21 24.3 21 26 C20.34 26.33 19.68 26.66 19 27 C19 26.34 19 25.68 19 25 C18.34 24.67 17.68 24.34 17 24 C17.33 22.68 17.66 21.36 18 20 C16.35 20.66 14.7 21.32 13 22 C12.38125 20.7934375 12.38125 20.7934375 11.75 19.5625 C10.26547669 16.85890282 10.26547669 16.85890282 7.8125 16.1875 C6.9153125 16.0946875 6.9153125 16.0946875 6 16 C6 14.35 6 12.7 6 11 C5.34 11 4.68 11 4 11 C3.67 9.02 3.34 7.04 3 5 C0.03 4.505 0.03 4.505 -3 4 C-3 3.34 -3 2.68 -3 2 C-2.01 2 -1.02 2 0 2 C0 1.34 0 0.68 0 0 Z " fill="#E5E3D2" transform="translate(62,54)"/>
<path d="M0 0 C0.99 0.33 1.98 0.66 3 1 C3 2.32 3 3.64 3 5 C6.465 4.505 6.465 4.505 10 4 C9.566875 4.7734375 9.566875 4.7734375 9.125 5.5625 C7.71219973 8.62356725 6.8751483 11.74944918 6 15 C4.35 15.33 2.7 15.66 1 16 C1 15.34 1 14.68 1 14 C-0.98 14.33 -2.96 14.66 -5 15 C-4.8125 13.1875 -4.8125 13.1875 -4 11 C-1.4375 9.25 -1.4375 9.25 1 8 C0.34 7.34 -0.32 6.68 -1 6 C-1.1875 3.4375 -1.1875 3.4375 -1 1 C-0.67 0.67 -0.34 0.34 0 0 Z " fill="#D3CFB1" transform="translate(108,51)"/>
<path d="M0 0 C0.99 0.66 1.98 1.32 3 2 C3.66 2.165 4.32 2.33 5 2.5 C7 3 7 3 10 5 C10.680625 5.165 11.36125 5.33 12.0625 5.5 C14 6 14 6 16 8 C16 9.32 16 10.64 16 12 C9.91766294 11.32418477 3.98685848 10.26361972 -2 9 C-2.125 5.625 -2.125 5.625 -2 2 C-1.34 1.34 -0.68 0.68 0 0 Z " fill="#D2D0B3" transform="translate(57,83)"/>
<path d="M0 0 C3.875 0.875 3.875 0.875 5 2 C5.04063832 3.66617115 5.042721 5.33388095 5 7 C5.66 7 6.32 7 7 7 C7 5.68 7 4.36 7 3 C8.65 3.33 10.3 3.66 12 4 C12 5.65 12 7.3 12 9 C11.01 9 10.02 9 9 9 C8.34 10.98 7.68 12.96 7 15 C6.4225 14.525625 5.845 14.05125 5.25 13.5625 C3.05729605 12.03978893 1.5689408 11.53150499 -1 11 C-2 10 -2 10 -2.0625 7.4375 C-2.041875 6.633125 -2.02125 5.82875 -2 5 C-1.34 5 -0.68 5 0 5 C0 3.35 0 1.7 0 0 Z " fill="#D9D3B6" transform="translate(37,64)"/>
<path d="M0 0 C0 0.66 0 1.32 0 2 C0.99 2 1.98 2 3 2 C3 3.65 3 5.3 3 7 C1.35 7.33 -0.3 7.66 -2 8 C-2.33 6.68 -2.66 5.36 -3 4 C-3.226875 4.94875 -3.45375 5.8975 -3.6875 6.875 C-5 10 -5 10 -7.5 11.375 C-10 12 -10 12 -12 12 C-11.4574852 7.44287564 -10.3106498 3.97431766 -8 0 C-5.13822943 -1.43088528 -3.06624227 -0.59991697 0 0 Z " fill="#D9D7BE" transform="translate(97,83)"/>
<path d="M0 0 C1.32 0.66 2.64 1.32 4 2 C3.01 2.33 2.02 2.66 1 3 C1 3.66 1 4.32 1 5 C2.32 5.66 3.64 6.32 5 7 C4.5875 7.53625 4.175 8.0725 3.75 8.625 C1.87157747 11.0698822 1.87157747 11.0698822 0.1875 14.25 C-2 17 -2 17 -5.25 17.375 C-6.1575 17.25125 -7.065 17.1275 -8 17 C-7.625 15.0625 -7.625 15.0625 -7 13 C-6.34 12.67 -5.68 12.34 -5 12 C-5 11.34 -5 10.68 -5 10 C-5.66 9.67 -6.32 9.34 -7 9 C-6.34 7.68 -5.68 6.36 -5 5 C-4.34 5 -3.68 5 -3 5 C-2.690625 4.360625 -2.38125 3.72125 -2.0625 3.0625 C-1 1 -1 1 0 0 Z " fill="#E0DFCB" transform="translate(42,85)"/>
<path d="M0 0 C0.99 0 1.98 0 3 0 C2.67 1.98 2.34 3.96 2 6 C2.99 6 3.98 6 5 6 C4.67 4.02 4.34 2.04 4 0 C5.32 0.33 6.64 0.66 8 1 C9.125 5.75 9.125 5.75 8 8 C8.27942455 9.67654729 8.60828247 11.34608154 9 13 C1.57142857 12 1.57142857 12 -2 11 C-2 10.34 -2 9.68 -2 9 C-1.34 8.67 -0.68 8.34 0 8 C-0.66 7.34 -1.32 6.68 -2 6 C-1.44444444 1.44444444 -1.44444444 1.44444444 0 0 Z " fill="#CECCAC" transform="translate(45,79)"/>
<path d="M0 0 C0.99 0 1.98 0 3 0 C3.33 1.98 3.66 3.96 4 6 C3.34 6 2.68 6 2 6 C2 7.98 2 9.96 2 12 C3.65 11.67 5.3 11.34 7 11 C6.01 14.63 5.02 18.26 4 22 C2 21 2 21 1.140625 18.8125 C0.84671875 17.884375 0.5528125 16.95625 0.25 16 C-1.7029354 10.34092582 -4.45103486 5.79110294 -8 1 C-6.865625 1.020625 -5.73125 1.04125 -4.5625 1.0625 C-1.18424326 1.41577477 -1.18424326 1.41577477 0 0 Z " fill="#E1DFCC" transform="translate(77,74)"/>
<path d="M0 0 C1.22589844 0.15275391 1.22589844 0.15275391 2.4765625 0.30859375 C3.41628906 0.43427734 3.41628906 0.43427734 4.375 0.5625 C3.715 1.2225 3.055 1.8825 2.375 2.5625 C2.04166667 5.0625 2.04166667 5.0625 2.375 7.5625 C3.035 8.2225 3.695 8.8825 4.375 9.5625 C-0.8984375 12.78515625 -0.8984375 12.78515625 -2.625 13.5625 C-3.285 13.2325 -3.945 12.9025 -4.625 12.5625 C-4.625 10.5825 -4.625 8.6025 -4.625 6.5625 C-5.615 6.2325 -6.605 5.9025 -7.625 5.5625 C-7.25 3.125 -7.25 3.125 -6.625 0.5625 C-4.10446405 -0.69776798 -2.7707902 -0.35624445 0 0 Z " fill="#DCD7BE" transform="translate(105.625,49.4375)"/>
<path d="M0 0 C0.33 0.99 0.66 1.98 1 3 C1.598125 2.649375 2.19625 2.29875 2.8125 1.9375 C5 1 5 1 8 2 C7.01 2.495 7.01 2.495 6 3 C6.65585189 6.60992379 6.65585189 6.60992379 8 10 C7.39421747 12.01927511 6.73080266 14.02253397 6 16 C3.36 16 0.72 16 -2 16 C-1.01 13.69 -0.02 11.38 1 9 C0.01 8.67 -0.98 8.34 -2 8 C-0.68 7.67 0.64 7.34 2 7 C1.484375 6.401875 0.96875 5.80375 0.4375 5.1875 C-0.036875 4.465625 -0.51125 3.74375 -1 3 C-0.67 2.01 -0.34 1.02 0 0 Z " fill="#DDDBC5" transform="translate(110,70)"/>
<path d="M0 0 C2 3 2 3 2 5 C2.66 5.33 3.32 5.66 4 6 C3.67 7.65 3.34 9.3 3 11 C0.39417629 11.93065133 -0.64198224 12.14917407 -3.25 11.0625 C-3.8275 10.711875 -4.405 10.36125 -5 10 C-5.33 10.99 -5.66 11.98 -6 13 C-6.99 12.01 -7.98 11.02 -9 10 C-6 8 -6 8 -3 8 C-3 6.35 -3 4.7 -3 3 C-2.01 2.67 -1.02 2.34 0 2 C0 1.34 0 0.68 0 0 Z " fill="#D9D1B2" transform="translate(56,50)"/>
<path d="M0 0 C0.66 0 1.32 0 2 0 C2 1.98 2 3.96 2 6 C2.66 6 3.32 6 4 6 C4.125 8.375 4.125 8.375 4 11 C3.34 11.66 2.68 12.32 2 13 C1.01 13 0.02 13 -1 13 C-1.33 13.66 -1.66 14.32 -2 15 C-2 12.69 -2 10.38 -2 8 C-2.66 7.67 -3.32 7.34 -4 7 C-2.92598892 4.08482708 -2.22189824 2.22189824 0 0 Z " fill="#D5D3B7" transform="translate(97,58)"/>
<path d="M0 0 C1.20628008 2.33214148 2.1654738 4.49642139 3 7 C3.66 7.66 4.32 8.32 5 9 C6.066855 12.00659136 6.04940314 12.85179059 5 16 C0.125 15.125 0.125 15.125 -1 14 C-1.04063832 12.33382885 -1.042721 10.66611905 -1 9 C-2.32 8.34 -3.64 7.68 -5 7 C-4.0409375 6.6596875 -4.0409375 6.6596875 -3.0625 6.3125 C-0.72806339 5.14749104 -0.72806339 5.14749104 -0.25 2.375 C-0.1675 1.59125 -0.085 0.8075 0 0 Z " fill="#D7D5BB" transform="translate(101,64)"/>
<path d="M0 0 C2.33333333 2.33333333 4.66666667 4.66666667 7 7 C6.8125 9.0625 6.8125 9.0625 6 11 C2.17456525 12.27514492 0.66576992 11.52740413 -3 10 C-4.875 8.375 -4.875 8.375 -6 7 C-3.69 7.33 -1.38 7.66 1 8 C0.649375 7.4225 0.29875 6.845 -0.0625 6.25 C-1.14917407 3.64198224 -0.93065133 2.60582371 0 0 Z " fill="#6F6D4F" transform="translate(30,26)"/>
<path d="M0 0 C0.66 0.33 1.32 0.66 2 1 C1.67 2.32 1.34 3.64 1 5 C2.65 4.67 4.3 4.34 6 4 C6.33 2.68 6.66 1.36 7 0 C7.33 1.98 7.66 3.96 8 6 C7.25234375 6.25394531 6.5046875 6.50789063 5.734375 6.76953125 C4.74953125 7.11371094 3.7646875 7.45789063 2.75 7.8125 C1.77546875 8.14894531 0.8009375 8.48539063 -0.203125 8.83203125 C-2.86537588 9.94378127 -4.73495089 11.25110146 -7 13 C-7.66 13 -8.32 13 -9 13 C-8.67 11.35 -8.34 9.7 -8 8 C-7.21625 7.938125 -6.4325 7.87625 -5.625 7.8125 C-4.75875 7.544375 -3.8925 7.27625 -3 7 C-1.62533375 4.52363988 -1.62533375 4.52363988 -1 2 C-1.66 1.67 -2.32 1.34 -3 1 C-2.01 0.67 -1.02 0.34 0 0 Z " fill="#E4E2D1" transform="translate(94,86)"/>
<path d="M0 0 C0.99 0.33 1.98 0.66 3 1 C3.33 2.65 3.66 4.3 4 6 C4.9590625 6.2165625 4.9590625 6.2165625 5.9375 6.4375 C8 7 8 7 9 8 C9.04063832 9.66617115 9.042721 11.33388095 9 13 C7.125 12.75 7.125 12.75 5 12 C4.3162955 10.67532254 3.65035814 9.34136367 3 8 C0.9664052 6.73195434 0.9664052 6.73195434 -1 6 C-0.67 4.02 -0.34 2.04 0 0 Z " fill="#9B9756" transform="translate(53,43)"/>
<path d="M0 0 C1.32 0.33 2.64 0.66 4 1 C5.06351675 4.38391693 5.21442982 5.5804634 3.5625 8.8125 C3.046875 9.534375 2.53125 10.25625 2 11 C0.35 10.67 -1.3 10.34 -3 10 C-3 8.68 -3 7.36 -3 6 C-2.01 5.67 -1.02 5.34 0 5 C0 3.35 0 1.7 0 0 Z " fill="#9E995A" transform="translate(37,78)"/>
<path d="M0 0 C0.66 0 1.32 0 2 0 C2.33 1.98 2.66 3.96 3 6 C4.65 6 6.3 6 8 6 C7.278125 6.556875 6.55625 7.11375 5.8125 7.6875 C3.02282044 9.98123652 0.51793656 12.4140111 -2 15 C-4 17 -4 17 -7 18 C-5.84133516 15.48955952 -4.60918894 13.47891858 -2.9375 11.25 C-0.55934293 7.2608333 -0.31640428 4.58786206 0 0 Z " fill="#97924F" transform="translate(93,66)"/>
<path d="M0 0 C2.97 0.495 2.97 0.495 6 1 C6 2.65 6 4.3 6 6 C7.65 6.33 9.3 6.66 11 7 C11.33 8.65 11.66 10.3 12 12 C9.125 11.8125 9.125 11.8125 6 11 C4.625 8.4375 4.625 8.4375 4 6 C3.34 6.66 2.68 7.32 2 8 C1.34 5.36 0.68 2.72 0 0 Z " fill="#DAD8C0" transform="translate(62,64)"/>
<path d="M0 0 C2.97 0.495 2.97 0.495 6 1 C6 1.66 6 2.32 6 3 C6.99 3 7.98 3 9 3 C9 4.65 9 6.3 9 8 C7.35 8.33 5.7 8.66 4 9 C3.67 7.68 3.34 6.36 3 5 C1.68 4.67 0.36 4.34 -1 4 C-0.67 2.68 -0.34 1.36 0 0 Z " fill="#9D995A" transform="translate(91,82)"/>
<path d="M0 0 C0.33 1.32 0.66 2.64 1 4 C2.32 4 3.64 4 5 4 C5 4.66 5 5.32 5 6 C6.32 6.33 7.64 6.66 9 7 C9 7.66 9 8.32 9 9 C7.125 9.625 7.125 9.625 5 10 C4.34 9.34 3.68 8.68 3 8 C2.855625 8.763125 2.71125 9.52625 2.5625 10.3125 C2 13 2 13 1 16 C-2.19148936 11.21276596 -2.19148936 11.21276596 -1.625 7.625 C-1.41875 6.75875 -1.2125 5.8925 -1 5 C-0.814375 4.071875 -0.62875 3.14375 -0.4375 2.1875 C-0.293125 1.465625 -0.14875 0.74375 0 0 Z " fill="#E3E2D0" transform="translate(54,76)"/>
<path d="M0 0 C3.875 1.75 3.875 1.75 5 4 C5.99 3.34 6.98 2.68 8 2 C9.125 7.75 9.125 7.75 8 10 C6.0625 9.625 6.0625 9.625 4 9 C3.67 8.34 3.34 7.68 3 7 C2.01 6.67 1.02 6.34 0 6 C0 4.02 0 2.04 0 0 Z " fill="#97924F" transform="translate(83,65)"/>
<path d="M0 0 C2.475 0.99 2.475 0.99 5 2 C5 3.32 5 4.64 5 6 C3.68 5.67 2.36 5.34 1 5 C0.67 5.66 0.34 6.32 0 7 C-1.65 6.67 -3.3 6.34 -5 6 C-5.33 4.35 -5.66 2.7 -6 1 C-3.525 1.495 -3.525 1.495 -1 2 C-0.67 1.34 -0.34 0.68 0 0 Z " fill="#9A9554" transform="translate(51,60)"/>
<path d="M0 0 C2.475 0.99 2.475 0.99 5 2 C5 3.32 5 4.64 5 6 C4.01 6 3.02 6 2 6 C1.67 7.98 1.34 9.96 1 12 C0.67 12 0.34 12 0 12 C-0.33 10.35 -0.66 8.7 -1 7 C-1.99 7.99 -2.98 8.98 -4 10 C-4 5.75354935 -2.18249194 3.61475228 0 0 Z " fill="#ADAB95" transform="translate(113,15)"/>
<path d="M0 0 C1.67542976 0.28604898 3.34385343 0.61781233 5 1 C5.12375 1.7425 5.2475 2.485 5.375 3.25 C5.95486701 5.80141485 6.73708739 7.7267573 8 10 C5.75 10.375 5.75 10.375 3 10 C0.42485131 6.8680624 -1 5.10589421 -1 1 C-0.67 0.67 -0.34 0.34 0 0 Z " fill="#9D9959" transform="translate(104,67)"/>
<path d="M0 0 C2.475 0.99 2.475 0.99 5 2 C5 3.65 5 5.3 5 7 C3.68 7 2.36 7 1 7 C0.67 6.67 0.34 6.34 0 6 C-1.65 7.32 -3.3 8.64 -5 10 C-5.33 7.69 -5.66 5.38 -6 3 C-4.68 3.33 -3.36 3.66 -2 4 C-1.34 2.68 -0.68 1.36 0 0 Z " fill="#DFDDC8" transform="translate(101,35)"/>
<path d="M0 0 C1.70840281 1.63412443 2.93453047 2.86906094 4 5 C4.99 5.33 5.98 5.66 7 6 C7 7.65 7 9.3 7 11 C5.68 11 4.36 11 3 11 C2.67 10.01 2.34 9.02 2 8 C1.01 7.67 0.02 7.34 -1 7 C-1.04254356 5.00045254 -1.04080783 2.99958364 -1 1 C-0.67 0.67 -0.34 0.34 0 0 Z " fill="#95914C" transform="translate(90,46)"/>
<path d="M0 0 C1.32 0 2.64 0 4 0 C4 0.99 4 1.98 4 3 C5.65 3 7.3 3 9 3 C9 3.66 9 4.32 9 5 C7.35 4.67 5.7 4.34 4 4 C4.95865509 6.33075929 4.95865509 6.33075929 8 8 C5 9 5 9 3.17578125 8.22265625 C1.45052083 7.1484375 -0.27473958 6.07421875 -2 5 C-1.125 1.125 -1.125 1.125 0 0 Z " fill="#AEAC96" transform="translate(18,42)"/>
<path d="M0 0 C0.99 0.33 1.98 0.66 3 1 C3.33 1.99 3.66 2.98 4 4 C5.32 3.34 6.64 2.68 8 2 C8 3.65 8 5.3 8 7 C6.02 7.99 6.02 7.99 4 9 C3.34 8.34 2.68 7.68 2 7 C1.01 7 0.02 7 -1 7 C-0.67 4.69 -0.34 2.38 0 0 Z " fill="#999351" transform="translate(93,40)"/>
<path d="M0 0 C1.98 0 3.96 0 6 0 C6.66 1.32 7.32 2.64 8 4 C7.34 4.66 6.68 5.32 6 6 C5.01 6 4.02 6 3 6 C3 7.32 3 8.64 3 10 C2.34 10 1.68 10 1 10 C0.67 6.7 0.34 3.4 0 0 Z " fill="#AAA891" transform="translate(83,143)"/>
<path d="M0 0 C3.73678306 4.71159603 4.11284843 8.01903338 4 14 C-0.875 12.25 -0.875 12.25 -2 10 C-1.01 10 -0.02 10 1 10 C0.67 9.2575 0.34 8.515 0 7.75 C-1 5 -1 5 -1 1 C-0.67 0.67 -0.34 0.34 0 0 Z " fill="#E0DECA" transform="translate(72,85)"/>
<path d="M0 0 C3.465 1.485 3.465 1.485 7 3 C7.33 2.01 7.66 1.02 8 0 C10.475 0.99 10.475 0.99 13 2 C12.67 2.66 12.34 3.32 12 4 C10.35 4 8.7 4 7 4 C7.66 5.32 8.32 6.64 9 8 C8.01 8.33 7.02 8.66 6 9 C5.67 7.35 5.34 5.7 5 4 C3.35 3.67 1.7 3.34 0 3 C0 4.32 0 5.64 0 7 C-0.66 6.67 -1.32 6.34 -2 6 C-1.34 4.02 -0.68 2.04 0 0 Z " fill="#E2E0CC" transform="translate(44,64)"/>
<path d="M0 0 C0.66 0 1.32 0 2 0 C2.99 2.97 3.98 5.94 5 9 C4.34 9 3.68 9 3 9 C3 8.01 3 7.02 3 6 C1.68 6 0.36 6 -1 6 C-0.67 7.32 -0.34 8.64 0 10 C-1.32 10 -2.64 10 -4 10 C-2.8905928 6.51329166 -1.73662334 3.22515763 0 0 Z " fill="#AEAC96" transform="translate(73,144)"/>
<path d="M0 0 C2.9719385 1.12451727 5.33440687 2.22293791 8 4 C8.33 3.34 8.66 2.68 9 2 C9.33 3.98 9.66 5.96 10 8 C7.04590299 6.62845496 4.55991624 5.01136276 2 3 C2.34227572 5.97065509 2.34227572 5.97065509 3 9 C3.66 9.33 4.32 9.66 5 10 C4.01 10 3.02 10 2 10 C1.34 6.7 0.68 3.4 0 0 Z " fill="#AEAC96" transform="translate(58,10)"/>
<path d="M0 0 C0.598125 0.185625 1.19625 0.37125 1.8125 0.5625 C4.16408762 1.22093687 4.16408762 1.22093687 7 0 C6.01 3.63 5.02 7.26 4 11 C3.34 10.67 2.68 10.34 2 10 C1.3671875 7.71484375 1.3671875 7.71484375 0.875 4.9375 C0.70742187 4.01839844 0.53984375 3.09929687 0.3671875 2.15234375 C0.24601562 1.44207031 0.12484375 0.73179688 0 0 Z " fill="#E0DFCB" transform="translate(77,85)"/>
<path d="M0 0 C0.99 0.33 1.98 0.66 3 1 C2.40312566 4.34249629 1.26396123 6.46436342 -1 9 C-1.66 9 -2.32 9 -3 9 C-2.67 8.01 -2.34 7.02 -2 6 C-2.99 5.34 -3.98 4.68 -5 4 C-5 3.34 -5 2.68 -5 2 C-2.525 2.495 -2.525 2.495 0 3 C0 2.01 0 1.02 0 0 Z " fill="#5A5737" transform="translate(27,44)"/>
<path d="M0 0 C1.65 0.33 3.3 0.66 5 1 C4.01 1.66 3.02 2.32 2 3 C1.26393501 6.56769552 1.26393501 6.56769552 1 10 C2.32 10.66 3.64 11.32 5 12 C2.36 11.67 -0.28 11.34 -3 11 C-2.01 7.37 -1.02 3.74 0 0 Z " fill="#AFAD97" transform="translate(99,9)"/>
<path d="M0 0 C2.0625 0.4375 2.0625 0.4375 4 1 C3.01 1 2.02 1 1 1 C1.33 3.64 1.66 6.28 2 9 C-0.375 9.625 -0.375 9.625 -3 10 C-3.66 9.34 -4.32 8.68 -5 8 C-4.67 7.01 -4.34 6.02 -4 5 C-3.01 5.99 -2.02 6.98 -1 8 C-1.020625 6.865625 -1.04125 5.73125 -1.0625 4.5625 C-1 1 -1 1 0 0 Z " fill="#B4B29D" transform="translate(124,24)"/>
<path d="M0 0 C-0.33 1.98 -0.66 3.96 -1 6 C-2.65 6.33 -4.3 6.66 -6 7 C-5.6875 4.625 -5.6875 4.625 -5 2 C-2 0 -2 0 0 0 Z " fill="#C8943F" transform="translate(80,47)"/>
<path d="M0 0 C0.99 0.33 1.98 0.66 3 1 C4.125 5.75 4.125 5.75 3 8 C1.68 7.34 0.36 6.68 -1 6 C-1.042721 4.33388095 -1.04063832 2.66617115 -1 1 C-0.67 0.67 -0.34 0.34 0 0 Z " fill="#96924E" transform="translate(79,39)"/>
<path d="M0 0 C1.65 0.33 3.3 0.66 5 1 C5 1.99 5 2.98 5 4 C0.25 5.125 0.25 5.125 -2 4 C-1.34 2.68 -0.68 1.36 0 0 Z " fill="#999553" transform="translate(37,90)"/>
<path d="M0 0 C1.32 0.33 2.64 0.66 4 1 C4.33 2.65 4.66 4.3 5 6 C3.68 6 2.36 6 1 6 C0 5 0 5 -0.0625 2.4375 C-0.041875 1.633125 -0.02125 0.82875 0 0 Z " fill="#96914E" transform="translate(59,64)"/>
<path d="M0 0 C2.475 0.99 2.475 0.99 5 2 C5 3.65 5 5.3 5 7 C1.125 6.125 1.125 6.125 0 5 C-0.04063832 3.33382885 -0.042721 1.66611905 0 0 Z " fill="#96843C" transform="translate(77,60)"/>
<path d="M0 0 C0.66 0 1.32 0 2 0 C1.67 1.98 1.34 3.96 1 6 C1.66 6.33 2.32 6.66 3 7 C1.02 7.99 1.02 7.99 -1 9 C-1 8.34 -1 7.68 -1 7 C-2.98 7.99 -2.98 7.99 -5 9 C-4.6875 7.0625 -4.6875 7.0625 -4 5 C-3.01 4.67 -2.02 4.34 -1 4 C-0.26676204 1.98491642 -0.26676204 1.98491642 0 0 Z " fill="#E2E0CD" transform="translate(73,48)"/>
<path d="M0 0 C2 0.75 2 0.75 4 3.75 C1.6875 4.375 1.6875 4.375 -1 4.75 C-1.99 4.09 -2.98 3.43 -4 2.75 C-4 2.09 -4 1.43 -4 0.75 C-2 -0.25 -2 -0.25 0 0 Z " fill="#9E9A5B" transform="translate(129,94.25)"/>
<path d="M0 0 C1.9375 0.6875 1.9375 0.6875 4 2 C4.75 4.625 4.75 4.625 5 7 C3.35 6.67 1.7 6.34 0 6 C0 4.02 0 2.04 0 0 Z " fill="#94904B" transform="translate(61,85)"/>
<path d="M0 0 C1.32 0.33 2.64 0.66 4 1 C4.33 2.65 4.66 4.3 5 6 C4.01 6.495 4.01 6.495 3 7 C2.01 6.34 1.02 5.68 0 5 C-0.1875 2.375 -0.1875 2.375 0 0 Z " fill="#95914C" transform="translate(37,78)"/>
<path d="M0 0 C1.65 0.33 3.3 0.66 5 1 C4.34 2.32 3.68 3.64 3 5 C1.35 4.67 -0.3 4.34 -2 4 C-1.34 2.68 -0.68 1.36 0 0 Z " fill="#9A9554" transform="translate(127,73)"/>
<path d="M0 0 C0.66 0 1.32 0 2 0 C2 0.66 2 1.32 2 2 C3.65 1.67 5.3 1.34 7 1 C7 1.66 7 2.32 7 3 C6.34 3 5.68 3 5 3 C4.67 3.99 4.34 4.98 4 6 C1.69 6 -0.62 6 -3 6 C-2.34 5.34 -1.68 4.68 -1 4 C-0.3574765 1.93125966 -0.3574765 1.93125966 0 0 Z " fill="#D9D8BF" transform="translate(72,57)"/>
<path d="M0 0 C2.475 0.99 2.475 0.99 5 2 C5 3.65 5 5.3 5 7 C2.525 6.01 2.525 6.01 0 5 C0 3.35 0 1.7 0 0 Z " fill="#938E48" transform="translate(88,55)"/>
<path d="M0 0 C1.65 0.33 3.3 0.66 5 1 C5 2.32 5 3.64 5 5 C3.35 4.67 1.7 4.34 0 4 C0 2.68 0 1.36 0 0 Z " fill="#9B9655" transform="translate(37,49)"/>
<path d="M0 0 C1.9375 0.6875 1.9375 0.6875 4 2 C4.75 4.625 4.75 4.625 5 7 C1.125 6.125 1.125 6.125 0 5 C-0.04063832 3.33382885 -0.042721 1.66611905 0 0 Z " fill="#96914D" transform="translate(68,88)"/>
<path d="M0 0 C-0.66 1.32 -1.32 2.64 -2 4 C-3.65 3.67 -5.3 3.34 -7 3 C-6.67 2.01 -6.34 1.02 -6 0 C-3.50907189 -1.24546405 -2.58919267 -0.7767578 0 0 Z " fill="#96924E" transform="translate(127,85)"/>
<path d="M0 0 C0.99 0 1.98 0 3 0 C2.67 1.98 2.34 3.96 2 6 C1.01 6.33 0.02 6.66 -1 7 C-1.625 4.625 -1.625 4.625 -2 2 C-1.34 1.34 -0.68 0.68 0 0 Z " fill="#9B8A45" transform="translate(45,79)"/>
<path d="M0 0 C2.0625 0.4375 2.0625 0.4375 4 1 C4 1.99 4 2.98 4 4 C1.69 4.33 -0.62 4.66 -3 5 C-1.125 1.125 -1.125 1.125 0 0 Z " fill="#97853D" transform="translate(62,77)"/>
<path d="M0 0 C0.99 0.33 1.98 0.66 3 1 C3.33 2.65 3.66 4.3 4 6 C2.68 6 1.36 6 0 6 C-0.38218767 4.34385343 -0.71395102 2.67542976 -1 1 C-0.67 0.67 -0.34 0.34 0 0 Z " fill="#999553" transform="translate(83,74)"/>
<path d="M0 0 C0.66 0 1.32 0 2 0 C2.125 2.375 2.125 2.375 2 5 C1.34 5.66 0.68 6.32 0 7 C-0.99 7 -1.98 7 -3 7 C-2.25 2.25 -2.25 2.25 0 0 Z " fill="#9A9554" transform="translate(97,58)"/>
<path d="M0 0 C0 1.65 0 3.3 0 5 C-1.98 5.99 -1.98 5.99 -4 7 C-4.6875 5.1875 -4.6875 5.1875 -5 3 C-3.38441968 0.84589291 -2.74502455 0 0 0 Z " fill="#989350" transform="translate(103,49)"/>
<path d="M0 0 C1.32 0.66 2.64 1.32 4 2 C4 3.65 4 5.3 4 7 C2.68 6.67 1.36 6.34 0 6 C-0.38218767 4.34385343 -0.71395102 2.67542976 -1 1 C-0.67 0.67 -0.34 0.34 0 0 Z " fill="#948F4A" transform="translate(58,49)"/>
<path d="M0 0 C0.99 0 1.98 0 3 0 C2.67 1.65 2.34 3.3 2 5 C0.35 5.33 -1.3 5.66 -3 6 C-2.42655063 3.13275314 -2.1385485 2.1385485 0 0 Z " fill="#999553" transform="translate(112,41)"/>
<path d="M0 0 C0.66 0.33 1.32 0.66 2 1 C2 2.98 2 4.96 2 7 C1.01 7.33 0.02 7.66 -1 8 C-1.625 5.125 -1.625 5.125 -2 2 C-1.34 1.34 -0.68 0.68 0 0 Z " fill="#979350" transform="translate(43,97)"/>
<path d="M0 0 C2.0625 0.4375 2.0625 0.4375 4 1 C3.34 2.32 2.68 3.64 2 5 C0.35 5 -1.3 5 -3 5 C-1.125 1.125 -1.125 1.125 0 0 Z " fill="#C7923D" transform="translate(31,94)"/>
<path d="M0 0 C1.2065625 0.0309375 1.2065625 0.0309375 2.4375 0.0625 C3.0975 1.3825 3.7575 2.7025 4.4375 4.0625 C1.5625 4.25 1.5625 4.25 -1.5625 4.0625 C-2.2225 3.0725 -2.8825 2.0825 -3.5625 1.0625 C-2.5625 0.0625 -2.5625 0.0625 0 0 Z " fill="#94904B" transform="translate(29.5625,86.9375)"/>
<path d="M0 0 C0.99 0 1.98 0 3 0 C3 1.65 3 3.3 3 5 C1.35 5.33 -0.3 5.66 -2 6 C-1.125 1.125 -1.125 1.125 0 0 Z " fill="#938E48" transform="translate(97,85)"/>
<path d="M0 0 C0.66 0.33 1.32 0.66 2 1 C2 2.98 2 4.96 2 7 C1.01 7.33 0.02 7.66 -1 8 C-1.625 5.125 -1.625 5.125 -2 2 C-1.34 1.34 -0.68 0.68 0 0 Z " fill="#928D47" transform="translate(57,83)"/>
<path d="M0 0 C0.99 0 1.98 0 3 0 C2.75 2.375 2.75 2.375 2 5 C-0.0625 6.3125 -0.0625 6.3125 -2 7 C-2.125 4.625 -2.125 4.625 -2 2 C-1.34 1.34 -0.68 0.68 0 0 Z " fill="#989351" transform="translate(108,79)"/>
<path d="M0 0 C0 0.99 0 1.98 0 3 C-1.98 3 -3.96 3 -6 3 C-6.33 2.01 -6.66 1.02 -7 0 C-4.3333581 -1.33332095 -2.83319697 -0.67102033 0 0 Z " fill="#97924F" transform="translate(35,80)"/>
<path d="M0 0 C2.31 0.33 4.62 0.66 7 1 C7.33 1.99 7.66 2.98 8 4 C6.02 4 4.04 4 2 4 C1.34 2.68 0.68 1.36 0 0 Z " fill="#95823A" transform="translate(94,78)"/>
<path d="M0 0 C0.33 1.98 0.66 3.96 1 6 C-1.97 6 -4.94 6 -8 6 C-2.15384615 0 -2.15384615 0 0 0 Z " fill="#D9D6BD" transform="translate(100,73)"/>
<path d="M0 0 C1.67542976 0.28604898 3.34385343 0.61781233 5 1 C5.33 2.32 5.66 3.64 6 5 C3.625 4.6875 3.625 4.6875 1 4 C0.34 3.01 -0.32 2.02 -1 1 C-0.67 0.67 -0.34 0.34 0 0 Z " fill="#989451" transform="translate(29,73)"/>
<path d="M0 0 C0.66 0 1.32 0 2 0 C2 1.98 2 3.96 2 6 C0.02 6.99 0.02 6.99 -2 8 C-2.125 5.125 -2.125 5.125 -2 2 C-1.34 1.34 -0.68 0.68 0 0 Z " fill="#918C44" transform="translate(70,55)"/>
<path d="M0 0 C1.67542976 0.28604898 3.34385343 0.61781233 5 1 C4.67 1.99 4.34 2.98 4 4 C2.35 4.33 0.7 4.66 -1 5 C-1 1 -1 1 0 0 Z " fill="#9A9554" transform="translate(120,49)"/>
<path d="M0 0 C1.9375 0.75 1.9375 0.75 4 2 C4.75 4.125 4.75 4.125 5 6 C3.68 6 2.36 6 1 6 C0 5 0 5 -0.0625 2.4375 C-0.041875 1.633125 -0.02125 0.82875 0 0 Z " fill="#948F4A" transform="translate(44,47)"/>
<path d="M0 0 C0.66 0.33 1.32 0.66 2 1 C2 2.98 2 4.96 2 7 C1.01 7.33 0.02 7.66 -1 8 C-2 7 -2 7 -2.1875 4.5625 C-2 2 -2 2 0 0 Z " fill="#96914D" transform="translate(106,43)"/>
<path d="M0 0 C0 1.65 0 3.3 0 5 C-1.98 5.99 -1.98 5.99 -4 7 C-4.6875 5.1875 -4.6875 5.1875 -5 3 C-3.38441968 0.84589291 -2.74502455 0 0 0 Z " fill="#97924F" transform="translate(101,33)"/>
<path d="M0 0 C0.66 0.33 1.32 0.66 2 1 C2 2.98 2 4.96 2 7 C1.01 7.33 0.02 7.66 -1 8 C-1.625 5.6875 -1.625 5.6875 -2 3 C-1.34 2.01 -0.68 1.02 0 0 Z " fill="#96914D" transform="translate(43,107)"/>
<path d="M0 0 C1.98 0.99 1.98 0.99 4 2 C3.67 3.98 3.34 5.96 3 8 C2.01 7.34 1.02 6.68 0 6 C-0.1875 2.875 -0.1875 2.875 0 0 Z " fill="#97924F" transform="translate(120,103)"/>
<path d="M0 0 C1.485 0.99 1.485 0.99 3 2 C3.1875 4.625 3.1875 4.625 3 7 C2.01 7 1.02 7 0 7 C-1 6 -1 6 -1.125 3.5 C-1 1 -1 1 0 0 Z " fill="#928E47" transform="translate(47,103)"/>
<path d="M0 0 C0.66 0.33 1.32 0.66 2 1 C1.67 2.98 1.34 4.96 1 7 C0.01 7.33 -0.98 7.66 -2 8 C-2.125 5.125 -2.125 5.125 -2 2 C-1.34 1.34 -0.68 0.68 0 0 Z " fill="#97853D" transform="translate(39,103)"/>
<path d="M0 0 C2.475 0.495 2.475 0.495 5 1 C5.33 2.65 5.66 4.3 6 6 C3.5625 5.25 3.5625 5.25 1 4 C0.1875 1.875 0.1875 1.875 0 0 Z " fill="#C8933E" transform="translate(120,97)"/>
<path d="M0 0 C0.33 0.66 0.66 1.32 1 2 C-1.31 2.33 -3.62 2.66 -6 3 C-6.33 2.01 -6.66 1.02 -7 0 C-4.30234372 -1.34882814 -2.84835666 -0.80338265 0 0 Z " fill="#97924F" transform="translate(125,91)"/>
<path d="M0 0 C0.99 0 1.98 0 3 0 C2.67 1.65 2.34 3.3 2 5 C0.68 5.33 -0.64 5.66 -2 6 C-1.125 1.125 -1.125 1.125 0 0 Z " fill="#9A9554" transform="translate(90,88)"/>
<path d="M0 0 C-0.33 1.65 -0.66 3.3 -1 5 C-2.65 5.33 -4.3 5.66 -6 6 C-5.625 3.5625 -5.625 3.5625 -5 1 C-3 0 -3 0 0 0 Z " fill="#96924E" transform="translate(113,85)"/>
<path d="M0 0 C1.65 0 3.3 0 5 0 C5.33 1.65 5.66 3.3 6 5 C4.35 4.67 2.7 4.34 1 4 C0.67 2.68 0.34 1.36 0 0 Z " fill="#918D46" transform="translate(47,86)"/>
<path d="M0 0 C0.33 0.99 0.66 1.98 1 3 C-1.875 3.1875 -1.875 3.1875 -5 3 C-5.66 2.01 -6.32 1.02 -7 0 C-4.3333581 -1.33332095 -2.83319697 -0.67102033 0 0 Z " fill="#96924E" transform="translate(70,83)"/>
<path d="M0 0 C0 0.99 0 1.98 0 3 C-2.31 2.67 -4.62 2.34 -7 2 C-7 1.34 -7 0.68 -7 0 C-4.3333581 -1.33332095 -2.83319697 -0.67102033 0 0 Z " fill="#9A8843" transform="translate(132,80)"/>
<path d="M0 0 C1.32 0.33 2.64 0.66 4 1 C4.33 2.65 4.66 4.3 5 6 C3.68 5.67 2.36 5.34 1 5 C0.67 3.35 0.34 1.7 0 0 Z " fill="#97924E" transform="translate(49,79)"/>
<path d="M0 0 C0.99 0 1.98 0 3 0 C2.67 1.65 2.34 3.3 2 5 C0.68 5.33 -0.64 5.66 -2 6 C-1.125 1.125 -1.125 1.125 0 0 Z " fill="#96914E" transform="translate(77,74)"/>
<path d="M0 0 C1.65 0 3.3 0 5 0 C4.67 1.32 4.34 2.64 4 4 C2.02 4 0.04 4 -2 4 C-1.34 2.68 -0.68 1.36 0 0 Z " fill="#918C45" transform="translate(50,73)"/>
<path d="M0 0 C1.32 0.33 2.64 0.66 4 1 C4.33 2.65 4.66 4.3 5 6 C3.68 5.67 2.36 5.34 1 5 C0.67 3.35 0.34 1.7 0 0 Z " fill="#95914C" transform="translate(35,70)"/>
<path d="M0 0 C1.32 0.33 2.64 0.66 4 1 C4.33 2.65 4.66 4.3 5 6 C3.68 5.67 2.36 5.34 1 5 C0.67 3.35 0.34 1.7 0 0 Z " fill="#948F4A" transform="translate(69,70)"/>
<path d="M0 0 C0.99 0 1.98 0 3 0 C2.67 1.65 2.34 3.3 2 5 C0.68 5.33 -0.64 5.66 -2 6 C-1.125 1.125 -1.125 1.125 0 0 Z " fill="#C89440" transform="translate(113,67)"/>
<path d="M0 0 C1.65 0 3.3 0 5 0 C5 1.32 5 2.64 5 4 C3.35 4 1.7 4 0 4 C0 2.68 0 1.36 0 0 Z " fill="#948F4A" transform="translate(29,65)"/>
<path d="M0 0 C1.32 0.33 2.64 0.66 4 1 C4.33 2.65 4.66 4.3 5 6 C3.68 5.67 2.36 5.34 1 5 C0.67 3.35 0.34 1.7 0 0 Z " fill="#908B43" transform="translate(37,64)"/>
<path d="M0 0 C1.32 0 2.64 0 4 0 C3.67 1.32 3.34 2.64 3 4 C1.35 4.33 -0.3 4.66 -2 5 C-1.125 1.125 -1.125 1.125 0 0 Z " fill="#998740" transform="translate(105,61)"/>
<path d="M0 0 C1.32 0 2.64 0 4 0 C3.67 1.32 3.34 2.64 3 4 C1.35 4.33 -0.3 4.66 -2 5 C-1.125 1.125 -1.125 1.125 0 0 Z " fill="#948F4A" transform="translate(125,58)"/>
<path d="M0 0 C0.99 0.99 1.98 1.98 3 3 C2.67 3.66 2.34 4.32 2 5 C0.68 4.34 -0.64 3.68 -2 3 C-2.33 3.99 -2.66 4.98 -3 6 C-3.99 5.01 -4.98 4.02 -6 3 C-4.02 2.01 -2.04 1.02 0 0 Z " fill="#E2E0CC" transform="translate(53,57)"/>
<path d="M0 0 C1.65 0 3.3 0 5 0 C5.33 1.65 5.66 3.3 6 5 C4.35 4.67 2.7 4.34 1 4 C0.67 2.68 0.34 1.36 0 0 Z " fill="#98863F" transform="translate(31,58)"/>
<path d="M0 0 C0.99 0 1.98 0 3 0 C3 1.98 3 3.96 3 6 C1.68 6 0.36 6 -1 6 C-0.67 4.02 -0.34 2.04 0 0 Z " fill="#918C45" transform="translate(70,36)"/>
<path d="M0 0 C1.98 0.99 1.98 0.99 4 2 C4 3.65 4 5.3 4 7 C2.68 6.67 1.36 6.34 0 6 C0 4.02 0 2.04 0 0 Z " fill="#95904C" transform="translate(91,30)"/>
<path d="M0 0 C0.99 0.33 1.98 0.66 3 1 C3 2.65 3 4.3 3 6 C2.01 6.33 1.02 6.66 0 7 C-0.38133299 5.0085944 -0.71325582 3.00720923 -1 1 C-0.67 0.67 -0.34 0.34 0 0 Z " fill="#9B8945" transform="translate(116,108)"/>
<path d="M0 0 C0.99 0 1.98 0 3 0 C2.67 1.65 2.34 3.3 2 5 C0.68 5.33 -0.64 5.66 -2 6 C-1.125 1.125 -1.125 1.125 0 0 Z " fill="#928D47" transform="translate(106,105)"/>
<path d="M0 0 C0.99 0.33 1.98 0.66 3 1 C3 2.65 3 4.3 3 6 C2.01 6.33 1.02 6.66 0 7 C-0.38133299 5.0085944 -0.71325582 3.00720923 -1 1 C-0.67 0.67 -0.34 0.34 0 0 Z " fill="#95914D" transform="translate(116,98)"/>
<path d="M0 0 C2.31 0.33 4.62 0.66 7 1 C7 1.99 7 2.98 7 4 C5.35 4 3.7 4 2 4 C1.34 2.68 0.68 1.36 0 0 Z " fill="#928E47" transform="translate(52,96)"/>
<path d="M0 0 C2 2 2 2 2.125 4.625 C2.08375 5.40875 2.0425 6.1925 2 7 C1.01 7 0.02 7 -1 7 C-1.625 4.625 -1.625 4.625 -2 2 C-1.34 1.34 -0.68 0.68 0 0 Z " fill="#948F4A" transform="translate(103,83)"/>
<path d="M0 0 C0.99 0.33 1.98 0.66 3 1 C3 2.65 3 4.3 3 6 C1.68 6 0.36 6 -1 6 C-0.67 4.02 -0.34 2.04 0 0 Z " fill="#95833A" transform="translate(79,80)"/>
<path d="M0 0 C2.66666667 1.33333333 5.33333333 2.66666667 8 4 C8 4.66 8 5.32 8 6 C7.01 6 6.02 6 5 6 C5 5.34 5 4.68 5 4 C2.69 4 0.38 4 -2 4 C-1.34 2.68 -0.68 1.36 0 0 Z " fill="#E0DECB" transform="translate(92,79)"/>
<path d="M0 0 C0.99 0.33 1.98 0.66 3 1 C3.625 3.375 3.625 3.375 4 6 C3.34 6.66 2.68 7.32 2 8 C0 6 0 6 -0.125 2.875 C-0.08375 1.92625 -0.0425 0.9775 0 0 Z " fill="#97934F" transform="translate(113,78)"/>
<path d="M0 0 C0.99 0 1.98 0 3 0 C3 1.98 3 3.96 3 6 C2.01 6 1.02 6 0 6 C-0.38218767 4.34385343 -0.71395102 2.67542976 -1 1 C-0.67 0.67 -0.34 0.34 0 0 Z " fill="#98863F" transform="translate(42,72)"/>
<path d="M0 0 C2.97 0.495 2.97 0.495 6 1 C5.67 1.99 5.34 2.98 5 4 C3.35 4 1.7 4 0 4 C0 2.68 0 1.36 0 0 Z " fill="#95904B" transform="translate(127,65)"/>
<path d="M0 0 C1.98 0 3.96 0 6 0 C6.33 1.32 6.66 2.64 7 4 C5.35 4 3.7 4 2 4 C1.34 2.68 0.68 1.36 0 0 Z " fill="#938F49" transform="translate(42,55)"/>
<path d="M0 0 C0.66 0 1.32 0 2 0 C2 1.98 2 3.96 2 6 C0.68 6 -0.64 6 -2 6 C-1.125 1.125 -1.125 1.125 0 0 Z " fill="#938E49" transform="translate(70,47)"/>
<path d="M0 0 C0.66 0.33 1.32 0.66 2 1 C2.1875 3.375 2.1875 3.375 2 6 C1.01 6.66 0.02 7.32 -1 8 C-1.625 5.6875 -1.625 5.6875 -2 3 C-1.34 2.01 -0.68 1.02 0 0 Z " fill="#938E48" transform="translate(75,40)"/>
<path d="M0 0 C1.32 0.33 2.64 0.66 4 1 C4.33 2.65 4.66 4.3 5 6 C2.525 5.01 2.525 5.01 0 4 C0 2.68 0 1.36 0 0 Z " fill="#999553" transform="translate(46,42)"/>
<path d="M0 0 C0.99 0.33 1.98 0.66 3 1 C3 2.65 3 4.3 3 6 C1.68 6 0.36 6 -1 6 C-0.67 4.02 -0.34 2.04 0 0 Z " fill="#938E48" transform="translate(103,36)"/>
<path d="M0 0 C-0.33 1.65 -0.66 3.3 -1 5 C-2.32 5.33 -3.64 5.66 -5 6 C-4.625 3.5625 -4.625 3.5625 -4 1 C-2 0 -2 0 0 0 Z " fill="#958239" transform="translate(113,35)"/>
<path d="M0 0 C2.475 0.99 2.475 0.99 5 2 C5 3.32 5 4.64 5 6 C3.68 5.67 2.36 5.34 1 5 C0.67 3.35 0.34 1.7 0 0 Z " fill="#94904B" transform="translate(60,35)"/>
<path d="M0 0 C0.66 0.33 1.32 0.66 2 1 C2 2.98 2 4.96 2 7 C0.68 6.67 -0.64 6.34 -2 6 C-1.125 1.125 -1.125 1.125 0 0 Z " fill="#96924E" transform="translate(67,30)"/>
<path d="M0 0 C2.96404505 2.80804268 5.44499019 5.18315774 7 9 C4.28775382 7.38731308 1.62647188 5.75098126 -1 4 C-0.67 2.68 -0.34 1.36 0 0 Z " fill="#C0BFAB" transform="translate(30,26)"/>
<path d="M0 0 C0.66 0 1.32 0 2 0 C2 1.98 2 3.96 2 6 C0.68 6 -0.64 6 -2 6 C-1.125 1.125 -1.125 1.125 0 0 Z " fill="#989351" transform="translate(112,103)"/>
<path d="M0 0 C1.65 0 3.3 0 5 0 C4.34 1.32 3.68 2.64 3 4 C1.35 4 -0.3 4 -2 4 C-1.34 2.68 -0.68 1.36 0 0 Z " fill="#8E8A41" transform="translate(101,102)"/>
<path d="M0 0 C1.65 0 3.3 0 5 0 C5.66 1.32 6.32 2.64 7 4 C5.35 4 3.7 4 2 4 C1.34 2.68 0.68 1.36 0 0 Z " fill="#918C44" transform="translate(55,102)"/>
<path d="M0 0 C0.66 0 1.32 0 2 0 C1.75 2.375 1.75 2.375 1 5 C-1.0625 6.3125 -1.0625 6.3125 -3 7 C-2.25 2.25 -2.25 2.25 0 0 Z " fill="#C7933D" transform="translate(112,96)"/>
<path d="M0 0 C1.98 0.99 1.98 0.99 4 2 C4 3.65 4 5.3 4 7 C2.68 6.34 1.36 5.68 0 5 C0 3.35 0 1.7 0 0 Z " fill="#C68E35" transform="translate(47,96)"/>
<path d="M0 0 C-0.33 1.32 -0.66 2.64 -1 4 C-2.65 4.33 -4.3 4.66 -6 5 C-5.625 3.0625 -5.625 3.0625 -5 1 C-3 0 -3 0 0 0 Z " fill="#918C45" transform="translate(40,97)"/>
<path d="M0 0 C1.65 0 3.3 0 5 0 C4.34 1.32 3.68 2.64 3 4 C1.35 4 -0.3 4 -2 4 C-1.34 2.68 -0.68 1.36 0 0 Z " fill="#918C44" transform="translate(103,96)"/>
<path d="M0 0 C0.99 0.33 1.98 0.66 3 1 C3 2.65 3 4.3 3 6 C2.01 6 1.02 6 0 6 C-0.38218767 4.34385343 -0.71395102 2.67542976 -1 1 C-0.67 0.67 -0.34 0.34 0 0 Z " fill="#928E47" transform="translate(116,72)"/>
<path d="M0 0 C1.65 0 3.3 0 5 0 C5.66 1.32 6.32 2.64 7 4 C5.35 4 3.7 4 2 4 C1.34 2.68 0.68 1.36 0 0 Z " fill="#8E8940" transform="translate(105,73)"/>
<path d="M0 0 C1.65 0 3.3 0 5 0 C5.66 1.32 6.32 2.64 7 4 C5.35 4 3.7 4 2 4 C1.34 2.68 0.68 1.36 0 0 Z " fill="#C58D33" transform="translate(74,68)"/>
<path d="M0 0 C0.639375 0.2475 1.27875 0.495 1.9375 0.75 C2.2675 1.74 2.5975 2.73 2.9375 3.75 C0.9575 3.75 -1.0225 3.75 -3.0625 3.75 C-3.3925 2.76 -3.7225 1.77 -4.0625 0.75 C-2.0625 -0.25 -2.0625 -0.25 0 0 Z " fill="#94904B" transform="translate(55.0625,67.25)"/>
<path d="M0 0 C2.475 0.495 2.475 0.495 5 1 C5 2.32 5 3.64 5 5 C3.35 4.67 1.7 4.34 0 4 C0 2.68 0 1.36 0 0 Z " fill="#908B44" transform="translate(45,61)"/>
<path d="M0 0 C1.32 0 2.64 0 4 0 C4.33 1.65 4.66 3.3 5 5 C3.35 4.67 1.7 4.34 0 4 C0 2.68 0 1.36 0 0 Z " fill="#938F49" transform="translate(61,59)"/>
<path d="M0 0 C0.99 0 1.98 0 3 0 C2.67 1.65 2.34 3.3 2 5 C0.68 5.33 -0.64 5.66 -2 6 C-1.125 1.125 -1.125 1.125 0 0 Z " fill="#938F49" transform="translate(119,58)"/>
<path d="M0 0 C1.65 0 3.3 0 5 0 C4.34 1.32 3.68 2.64 3 4 C1.35 4 -0.3 4 -2 4 C-1.34 2.68 -0.68 1.36 0 0 Z " fill="#918D46" transform="translate(113,55)"/>
<path d="M0 0 C2.475 0.99 2.475 0.99 5 2 C5 3.32 5 4.64 5 6 C3.68 5.67 2.36 5.34 1 5 C0.67 3.35 0.34 1.7 0 0 Z " fill="#918C45" transform="translate(82,53)"/>
<path d="M0 0 C0.99 0.33 1.98 0.66 3 1 C2.67 2.65 2.34 4.3 2 6 C1.01 6 0.02 6 -1 6 C-1.042721 4.33388095 -1.04063832 2.66617115 -1 1 C-0.67 0.67 -0.34 0.34 0 0 Z " fill="#C68F37" transform="translate(108,51)"/>
<path d="M0 0 C0.99 0.33 1.98 0.66 3 1 C3 2.65 3 4.3 3 6 C2.01 6 1.02 6 0 6 C-0.38218767 4.34385343 -0.71395102 2.67542976 -1 1 C-0.67 0.67 -0.34 0.34 0 0 Z " fill="#95904C" transform="translate(64,51)"/>
<path d="M0 0 C2.475 0.495 2.475 0.495 5 1 C5.33 2.32 5.66 3.64 6 5 C4.35 4.67 2.7 4.34 1 4 C0.67 2.68 0.34 1.36 0 0 Z " fill="#928D47" transform="translate(82,48)"/>
<path d="M0 0 C0.66 0 1.32 0 2 0 C2 1.65 2 3.3 2 5 C0.02 5.99 0.02 5.99 -2 7 C-2.125 4.625 -2.125 4.625 -2 2 C-1.34 1.34 -0.68 0.68 0 0 Z " fill="#948137" transform="translate(99,42)"/>
<path d="M0 0 C1.98 0.99 1.98 0.99 4 2 C4 3.65 4 5.3 4 7 C2.68 6.34 1.36 5.68 0 5 C0 3.35 0 1.7 0 0 Z " fill="#94904B" transform="translate(59,42)"/>
<path d="M0 0 C0.99 0.33 1.98 0.66 3 1 C2.67 2.65 2.34 4.3 2 6 C1.01 6 0.02 6 -1 6 C-1.042721 4.33388095 -1.04063832 2.66617115 -1 1 C-0.67 0.67 -0.34 0.34 0 0 Z " fill="#96833B" transform="translate(66,41)"/>
<path d="M0 0 C1.98 0.99 1.98 0.99 4 2 C4 3.65 4 5.3 4 7 C2.68 6.34 1.36 5.68 0 5 C0 3.35 0 1.7 0 0 Z " fill="#C58C32" transform="translate(84,40)"/>
<path d="M0 0 C1.5625 1.25 1.5625 1.25 3 3 C2.6875 5.1875 2.6875 5.1875 2 7 C1.01 7 0.02 7 -1 7 C-1.04254356 5.00045254 -1.04080783 2.99958364 -1 1 C-0.67 0.67 -0.34 0.34 0 0 Z " fill="#938E48" transform="translate(89,35)"/>
<path d="M0 0 C1.98 0.99 1.98 0.99 4 2 C3.67 3.65 3.34 5.3 3 7 C2.01 6.67 1.02 6.34 0 6 C0 4.02 0 2.04 0 0 Z " fill="#97924F" transform="translate(55,36)"/>
<path d="M0 0 C1.9375 0.75 1.9375 0.75 4 2 C4.75 4.125 4.75 4.125 5 6 C3.35 5.67 1.7 5.34 0 5 C0 3.35 0 1.7 0 0 Z " fill="#C7923B" transform="translate(48,35)"/>
<path d="M0 0 C0.66 0 1.32 0 2 0 C2 1.65 2 3.3 2 5 C0.02 5.99 0.02 5.99 -2 7 C-2.125 4.625 -2.125 4.625 -2 2 C-1.34 1.34 -0.68 0.68 0 0 Z " fill="#908C44" transform="translate(84,32)"/>
<path d="M0 0 C1.65 0 3.3 0 5 0 C4.0022242 2.99332739 3.2477975 3.94766315 1 6 C0.34 5.34 -0.32 4.68 -1 4 C-0.625 1.875 -0.625 1.875 0 0 Z " fill="#79765A" transform="translate(101,11)"/>
<path d="M0 0 C1.65 0.33 3.3 0.66 5 1 C4.01 2.485 4.01 2.485 3 4 C0.375 4.1875 0.375 4.1875 -2 4 C-1.34 2.68 -0.68 1.36 0 0 Z " fill="#928D47" transform="translate(129,87)"/>
<path d="M0 0 C0.33 0 0.66 0 1 0 C1 1.98 1 3.96 1 6 C-0.32 6.33 -1.64 6.66 -3 7 C-2.25 2.25 -2.25 2.25 0 0 Z " fill="#938E48" transform="translate(122,77)"/>
<path d="M0 0 C1.32 0.33 2.64 0.66 4 1 C4.33 2.32 4.66 3.64 5 5 C3.35 4.67 1.7 4.34 0 4 C0 2.68 0 1.36 0 0 Z " fill="#918D46" transform="translate(100,74)"/>
<path d="M0 0 C0 1.65 0 3.3 0 5 C-1.98 5.99 -1.98 5.99 -4 7 C-4.1875 4.625 -4.1875 4.625 -4 2 C-1 0 -1 0 0 0 Z " fill="#928D46" transform="translate(125,69)"/>
<path d="M0 0 C1.32 0.33 2.64 0.66 4 1 C4 2.65 4 4.3 4 6 C2.68 5.67 1.36 5.34 0 5 C0 3.35 0 1.7 0 0 Z " fill="#C68F36" transform="translate(45,67)"/>
<path d="M0 0 C1.32 0.33 2.64 0.66 4 1 C4 2.65 4 4.3 4 6 C2.68 5.67 1.36 5.34 0 5 C0 3.35 0 1.7 0 0 Z " fill="#928D47" transform="translate(39,58)"/>
<path d="M0 0 C0.99 0.33 1.98 0.66 3 1 C3.6875 3.0625 3.6875 3.0625 4 5 C3.34 5 2.68 5 2 5 C1.67 6.65 1.34 8.3 1 10 C-0.80411967 7.24075815 -1.0127245 6.11027897 -0.625 2.75 C-0.41875 1.8425 -0.2125 0.935 0 0 Z " fill="#E0DCC6" transform="translate(88,42)"/>
<path d="M0 0 C0.66 0.33 1.32 0.66 2 1 C1.67 2.65 1.34 4.3 1 6 C0.01 6.33 -0.98 6.66 -2 7 C-2.125 4.625 -2.125 4.625 -2 2 C-1.34 1.34 -0.68 0.68 0 0 Z " fill="#918D46" transform="translate(81,26)"/>
<path d="M0 0 C1.32 0 2.64 0 4 0 C3.67 1.32 3.34 2.64 3 4 C1.68 4.33 0.36 4.66 -1 5 C-0.67 3.35 -0.34 1.7 0 0 Z " fill="#928D46" transform="translate(56,75)"/>
<path d="M0 0 C0.66 0 1.32 0 2 0 C2 1.65 2 3.3 2 5 C0.68 5.33 -0.64 5.66 -2 6 C-1.125 1.125 -1.125 1.125 0 0 Z " fill="#908C44" transform="translate(99,64)"/>
<path d="M0 0 C0.99 0 1.98 0 3 0 C2.67 1.65 2.34 3.3 2 5 C0.68 5 -0.64 5 -2 5 C-1.125 1.125 -1.125 1.125 0 0 Z " fill="#908B43" transform="translate(112,61)"/>
<path d="M0 0 C1.65 0 3.3 0 5 0 C5.33 1.32 5.66 2.64 6 4 C4.35 3.67 2.7 3.34 1 3 C0.67 2.01 0.34 1.02 0 0 Z " fill="#908B44" transform="translate(84,61)"/>
<path d="M0 0 C0.66 0 1.32 0 2 0 C2 1.65 2 3.3 2 5 C0.68 5.33 -0.64 5.66 -2 6 C-1.125 1.125 -1.125 1.125 0 0 Z " fill="#8F8A42" transform="translate(103,55)"/>
<path d="M0 0 C1.65 0 3.3 0 5 0 C4.34 1.32 3.68 2.64 3 4 C1.68 4 0.36 4 -1 4 C-0.67 2.68 -0.34 1.36 0 0 Z " fill="#8F8A41" transform="translate(75,55)"/>
<path d="M0 0 C1.98 0.99 1.98 0.99 4 2 C4 3.32 4 4.64 4 6 C2.68 5.67 1.36 5.34 0 5 C0 3.35 0 1.7 0 0 Z " fill="#C48B2E" transform="translate(55,55)"/>
<path d="M0 0 C0.66 0 1.32 0 2 0 C2 1.65 2 3.3 2 5 C0.68 5.33 -0.64 5.66 -2 6 C-1.125 1.125 -1.125 1.125 0 0 Z " fill="#8F8A41" transform="translate(114,47)"/>
<path d="M0 0 C0.33 0 0.66 0 1 0 C1.33 1.98 1.66 3.96 2 6 C1.01 6 0.02 6 -1 6 C-1.66 7.32 -2.32 8.64 -3 10 C-4.125 6.25 -4.125 6.25 -3 4 C-2.01 4 -1.02 4 0 4 C0 2.68 0 1.36 0 0 Z " fill="#DDDAC3" transform="translate(54,37)"/>
<path d="M0 0 C2.475 0.495 2.475 0.495 5 1 C5 2.32 5 3.64 5 5 C3.68 4.67 2.36 4.34 1 4 C0.67 2.68 0.34 1.36 0 0 Z " fill="#918D46" transform="translate(73,32)"/>
<path d="M0 0 C0.66 0 1.32 0 2 0 C2.66 2.97 3.32 5.94 4 9 C3.01 9.495 3.01 9.495 2 10 C0.68373308 6.38026598 0 3.90432869 0 0 Z " fill="#C5C4B0" transform="translate(84,7)"/>
<path d="M0 0 C1.32 0.33 2.64 0.66 4 1 C4 2.65 4 4.3 4 6 C2.68 5.34 1.36 4.68 0 4 C0 2.68 0 1.36 0 0 Z " fill="#8F8B42" transform="translate(52,105)"/>
<path d="M0 0 C0.66 0 1.32 0 2 0 C1.67 1.98 1.34 3.96 1 6 C0.01 6 -0.98 6 -2 6 C-1.125 1.125 -1.125 1.125 0 0 Z " fill="#918C45" transform="translate(90,69)"/>
<path d="M0 0 C1.65 0 3.3 0 5 0 C4.34 1.32 3.68 2.64 3 4 C1.68 4 0.36 4 -1 4 C-0.67 2.68 -0.34 1.36 0 0 Z " fill="#908C44" transform="translate(119,65)"/>
<path d="M0 0 C-0.66 1.32 -1.32 2.64 -2 4 C-3.32 4 -4.64 4 -6 4 C-6 3.01 -6 2.02 -6 1 C-4 0 -4 0 0 0 Z " fill="#8F8A42" transform="translate(76,62)"/>
<path d="M0 0 C0.99 0.33 1.98 0.66 3 1 C3 2.98 3 4.96 3 7 C2.01 6.67 1.02 6.34 0 6 C0 4.02 0 2.04 0 0 Z " fill="#908C44" transform="translate(50,51)"/>
<path d="M0 0 C0.99 0.33 1.98 0.66 3 1 C3 2.32 3 3.64 3 5 C4.32 5.33 5.64 5.66 7 6 C5.35 6.33 3.7 6.66 2 7 C2 5.68 2 4.36 2 3 C1.01 3 0.02 3 -1 3 C-0.67 2.01 -0.34 1.02 0 0 Z " fill="#E7E6D6" transform="translate(100,61)"/>
<path d="M0 0 C2 3 2 3 2 6 C-0.375 6.625 -0.375 6.625 -3 7 C-3.66 6.34 -4.32 5.68 -5 5 C-3.35 4.67 -1.7 4.34 0 4 C0 2.68 0 1.36 0 0 Z " fill="#DCDAC4" transform="translate(100,86)"/>
<path d="M0 0 C0.66 0.33 1.32 0.66 2 1 C-1.465 3.97 -1.465 3.97 -5 7 C-5 6.01 -5 5.02 -5 4 C-2.5 1.8125 -2.5 1.8125 0 0 Z " fill="#D1D0BE" transform="translate(134,33)"/>
<path d="M0 0 C3.71888239 0.50712033 6.73454239 1.11608215 10 3 C6.20980534 4.26339822 4.62477616 3.49719015 1 2 C0.67 1.34 0.34 0.68 0 0 Z " fill="#D1D0BE" transform="translate(24,33)"/>
<path d="M0 0 C2.475 0.495 2.475 0.495 5 1 C4.67 1.99 4.34 2.98 4 4 C2.68 4 1.36 4 0 4 C0 2.68 0 1.36 0 0 Z " fill="#636041" transform="translate(125,25)"/>
</svg>
